<svg width="50" height="50" viewBox="0 0 50 50" fill="none" xmlns="http://www.w3.org/2000/svg">
<path d="M38.8582 49.9976C39.0434 50.0089 39.229 49.9806 39.4025 49.9147C39.5761 49.8489 39.7337 49.747 39.8649 49.6157C39.9962 49.4844 40.0981 49.3266 40.1639 49.1529C40.2297 48.9792 40.2579 48.7936 40.2467 48.6083V40.2761H48.5734C48.7589 40.2812 48.9435 40.249 49.1163 40.1815C49.2892 40.114 49.4467 40.0124 49.5797 39.883C49.7127 39.7535 49.8184 39.5987 49.8905 39.4277C49.9627 39.2567 49.9999 39.0729 49.9999 38.8872C49.9999 38.7016 49.9627 38.5178 49.8905 38.3468C49.8184 38.1757 49.7127 38.0208 49.5797 37.8913C49.4467 37.7619 49.2892 37.6605 49.1163 37.5929C48.9435 37.5254 48.7589 37.4933 48.5734 37.4984H40.2467V29.1662C40.2467 28.798 40.1005 28.4448 39.8403 28.1844C39.5801 27.9241 39.2272 27.7778 38.8592 27.7778C38.4912 27.7778 38.1383 27.9241 37.8781 28.1844C37.6179 28.4448 37.4718 28.798 37.4718 29.1662V37.4984H29.145C28.9595 37.4933 28.7749 37.5254 28.6021 37.5929C28.4293 37.6605 28.2717 37.7619 28.1387 37.8913C28.0057 38.0208 27.9 38.1757 27.8279 38.3468C27.7557 38.5178 27.7185 38.7016 27.7185 38.8872C27.7185 39.0729 27.7557 39.2567 27.8279 39.4277C27.9 39.5987 28.0057 39.7535 28.1387 39.883C28.2717 40.0124 28.4293 40.114 28.6021 40.1815C28.7749 40.249 28.9595 40.2812 29.145 40.2761H37.4718V48.6083C37.4604 48.7935 37.4884 48.9791 37.554 49.1527C37.6197 49.3262 37.7214 49.4839 37.8524 49.6152C37.9835 49.7465 38.1409 49.8486 38.3143 49.9145C38.4876 49.9804 38.673 50.0087 38.8582 49.9976V49.9976Z"/>
<path d="M1.38888 49.9975H20.8194C21.0045 50.0085 21.1898 49.98 21.3631 49.914C21.5364 49.848 21.6937 49.746 21.8247 49.6147C21.9558 49.4834 22.0575 49.3258 22.1231 49.1523C22.1888 48.9788 22.217 48.7934 22.2058 48.6082V29.1661C22.2168 28.981 22.1886 28.7956 22.1228 28.6222C22.0571 28.4488 21.9553 28.2914 21.8243 28.1602C21.6933 28.029 21.536 27.9271 21.3628 27.8611C21.1896 27.7952 21.0044 27.7668 20.8194 27.7777H1.38888C1.20383 27.7666 1.01853 27.7949 0.845232 27.8608C0.67193 27.9266 0.514565 28.0286 0.383531 28.1598C0.252498 28.291 0.150776 28.4485 0.0850881 28.6219C0.0194006 28.7954 -0.00875822 28.9809 0.00246975 29.1661V48.6082C-0.00891175 48.7934 0.0191337 48.979 0.0847526 49.1526C0.150371 49.3262 0.25207 49.4838 0.38312 49.6151C0.514171 49.7464 0.671589 49.8485 0.844968 49.9144C1.01835 49.9803 1.20374 50.0086 1.38888 49.9975V49.9975ZM2.77736 30.5555H19.4309V47.2198H2.77736V30.5555Z"/>
<path d="M27.7566 1.39272V20.8358C27.7453 21.0212 27.7735 21.2069 27.8393 21.3806C27.9051 21.5543 28.007 21.7119 28.1383 21.8433C28.2695 21.9746 28.4271 22.0766 28.6007 22.1424C28.7742 22.2083 28.9598 22.2364 29.145 22.2252H48.5735C48.7587 22.2364 48.9443 22.2083 49.1178 22.1424C49.2914 22.0766 49.449 21.9746 49.5802 21.8433C49.7115 21.7119 49.8134 21.5543 49.8792 21.3806C49.945 21.2069 49.9732 21.0212 49.9619 20.8358V1.39374C49.9732 1.20835 49.945 1.02274 49.8792 0.849076C49.8134 0.675409 49.7115 0.517621 49.5802 0.386291C49.449 0.25496 49.2914 0.152977 49.1178 0.087133C48.9443 0.0212887 48.7587 -0.00688323 48.5735 0.00436567H29.145C28.9599 -0.00686865 28.7744 0.0213502 28.6009 0.087133C28.4275 0.152916 28.2699 0.254821 28.1387 0.386036C28.0075 0.517252 27.9055 0.674773 27.8397 0.848313C27.7738 1.02185 27.7455 1.20742 27.7566 1.39272V1.39272ZM30.5325 2.78209H47.186V19.4464H30.5325V2.78209Z"/>
<path d="M1.38888 22.2232H20.8194C21.0045 22.2341 21.1898 22.2056 21.3631 22.1396C21.5364 22.0736 21.6937 21.9716 21.8247 21.8403C21.9558 21.709 22.0575 21.5515 22.1231 21.3779C22.1888 21.2044 22.217 21.019 22.2058 20.8338V1.39172C22.217 1.20652 22.1888 1.02096 22.1231 0.847444C22.0575 0.673931 21.9558 0.516337 21.8247 0.38504C21.6937 0.253743 21.5364 0.151737 21.3631 0.0857554C21.1898 0.0197739 21.0045 -0.00858966 20.8194 0.00235232H1.38888C1.20374 -0.00875862 1.01835 0.0195792 0.844968 0.0855011C0.671589 0.151423 0.514171 0.253326 0.38312 0.384659C0.25207 0.515991 0.150371 0.673727 0.0847526 0.847317C0.0191337 1.02091 -0.00891175 1.20648 0.00246975 1.39172V20.8358C-0.00860485 21.0209 0.0196695 21.2063 0.0854256 21.3796C0.151182 21.5529 0.252923 21.7104 0.38394 21.8415C0.514957 21.9726 0.672269 22.0743 0.845494 22.1401C1.01872 22.2059 1.20392 22.2342 1.38888 22.2232V22.2232ZM2.77736 2.7811H19.4309V19.4454H2.77736V2.7811Z"/>
</svg>
