<svg width="50" height="50" viewBox="0 0 50 50" fill="none" xmlns="http://www.w3.org/2000/svg">
<path d="M44.2655 4.50802C44.2799 3.92217 44.1768 3.33941 43.9623 2.79383C43.7478 2.24826 43.4262 1.75097 43.0163 1.33105C42.6064 0.911134 42.1166 0.57699 41.5756 0.348438C41.0345 0.119886 40.4531 0.00141826 39.8655 0H16.2965C16.2765 0 16.2575 0.0110555 16.2375 0.0120529C16.0575 0.00805107 15.8786 0.0407732 15.7118 0.108354C15.5449 0.175935 15.3938 0.276865 15.2675 0.404928L6.13653 9.76211L6.12753 9.77306C6.01575 9.89086 5.926 10.0277 5.86253 10.177C5.84539 10.2189 5.83103 10.2618 5.81953 10.3056C5.77941 10.4211 5.75519 10.5416 5.74753 10.6636C5.74753 10.6946 5.73153 10.7205 5.73153 10.7504V45.493C5.71711 46.6721 6.17226 47.8089 6.99713 48.6539C7.822 49.4988 8.94923 49.9829 10.1315 50H39.8675C40.455 49.9986 41.0363 49.8802 41.5773 49.6517C42.1183 49.4232 42.6081 49.0892 43.0179 48.6694C43.4278 48.2496 43.7494 47.7524 43.964 47.2069C44.1786 46.6614 44.2818 46.0787 44.2675 45.493L44.2655 4.50802ZM14.8725 4.78037V6.79393C14.8805 7.12897 14.8214 7.46229 14.6986 7.77423C14.5758 8.08618 14.3917 8.37052 14.1573 8.61063C13.9229 8.85074 13.6428 9.04173 13.3334 9.17249C13.024 9.30325 12.6916 9.37119 12.3555 9.37215H10.3555L14.8725 4.78037ZM41.5645 45.4979C41.5727 45.7248 41.5346 45.951 41.4526 46.1628C41.3706 46.3746 41.2464 46.5677 41.0875 46.7303C40.9286 46.8928 40.7383 47.0216 40.5281 47.1088C40.3179 47.1959 40.0922 47.2396 39.8645 47.2373H10.1265C9.67175 47.2256 9.23952 47.0373 8.92197 46.7124C8.60442 46.3875 8.42664 45.9517 8.42654 45.4979V12.1387H12.3545C13.0512 12.1367 13.7405 11.9959 14.3819 11.7248C15.0234 11.4536 15.6041 11.0575 16.0901 10.5597C16.5761 10.0618 16.9575 9.47219 17.2121 8.82539C17.4666 8.1786 17.5892 7.4876 17.5725 6.79296V2.76669H39.8675C40.0953 2.76438 40.3211 2.80815 40.5313 2.89537C40.7416 2.98259 40.932 3.11144 41.0909 3.27412C41.2498 3.43681 41.374 3.62991 41.4559 3.84183C41.5378 4.05374 41.5758 4.28007 41.5675 4.50705L41.5645 45.4979Z"/>
<path d="M37.7144 30.4771H12.3554C11.9938 30.4867 11.6504 30.6368 11.3981 30.8952C11.1458 31.1537 11.0046 31.5002 11.0046 31.8609C11.0046 32.2217 11.1458 32.5681 11.3981 32.8265C11.6504 33.085 11.9938 33.235 12.3554 33.2447H37.7144C38.0759 33.235 38.4194 33.085 38.6717 32.8265C38.924 32.5681 39.0651 32.2217 39.0651 31.8609C39.0651 31.5002 38.924 31.1537 38.6717 30.8952C38.4194 30.6368 38.0759 30.4867 37.7144 30.4771V30.4771Z"/>
<path d="M12.3554 16.4184H19.8654C20.2269 16.4087 20.5704 16.2587 20.8227 16.0002C21.075 15.7418 21.2161 15.3954 21.2161 15.0346C21.2161 14.6739 21.075 14.3274 20.8227 14.069C20.5704 13.8105 20.2269 13.6606 19.8654 13.6509H12.3554C11.9938 13.6606 11.6504 13.8105 11.3981 14.069C11.1458 14.3274 11.0046 14.6739 11.0046 15.0346C11.0046 15.3954 11.1458 15.7418 11.3981 16.0002C11.6504 16.2587 11.9938 16.4087 12.3554 16.4184V16.4184Z"/>
<path d="M37.7144 20.0376H12.3554C11.9938 20.0473 11.6504 20.1973 11.3981 20.4558C11.1458 20.7143 11.0046 21.0607 11.0046 21.4214C11.0046 21.7821 11.1458 22.1286 11.3981 22.3871C11.6504 22.6455 11.9938 22.7956 12.3554 22.8053H37.7144C38.0759 22.7956 38.4194 22.6455 38.6717 22.3871C38.924 22.1286 39.0651 21.7821 39.0651 21.4214C39.0651 21.0607 38.924 20.7143 38.6717 20.4558C38.4194 20.1973 38.0759 20.0473 37.7144 20.0376V20.0376Z"/>
<path d="M37.7107 40.9902H31.2607C30.8991 40.9999 30.5556 41.15 30.3034 41.4084C30.0511 41.6669 29.9099 42.0133 29.9099 42.374C29.9099 42.7347 30.0511 43.0812 30.3034 43.3397C30.5556 43.5982 30.8991 43.7482 31.2607 43.7579H37.7107C38.0722 43.7482 38.4157 43.5982 38.668 43.3397C38.9202 43.0812 39.0614 42.7347 39.0614 42.374C39.0614 42.0133 38.9202 41.6669 38.668 41.4084C38.4157 41.15 38.0722 40.9999 37.7107 40.9902V40.9902Z"/>
<path d="M37.7144 25.2959H12.3554C11.9938 25.3056 11.6504 25.4556 11.3981 25.7141C11.1458 25.9726 11.0046 26.3191 11.0046 26.6798C11.0046 27.0405 11.1458 27.3869 11.3981 27.6454C11.6504 27.9038 11.9938 28.0539 12.3554 28.0636H37.7144C38.0759 28.0539 38.4194 27.9038 38.6717 27.6454C38.924 27.3869 39.0651 27.0405 39.0651 26.6798C39.0651 26.3191 38.924 25.9726 38.6717 25.7141C38.4194 25.4556 38.0759 25.3056 37.7144 25.2959V25.2959Z"/>
<path d="M37.7144 35.7339H12.3554C11.9938 35.7436 11.6504 35.8936 11.3981 36.1521C11.1458 36.4105 11.0046 36.7569 11.0046 37.1177C11.0046 37.4784 11.1458 37.8249 11.3981 38.0833C11.6504 38.3418 11.9938 38.4917 12.3554 38.5014H37.7144C38.0759 38.4917 38.4194 38.3418 38.6717 38.0833C38.924 37.8249 39.0651 37.4784 39.0651 37.1177C39.0651 36.7569 38.924 36.4105 38.6717 36.1521C38.4194 35.8936 38.0759 35.7436 37.7144 35.7339V35.7339Z"/>
</svg>
