<svg width="50" height="50" viewBox="0 0 50 50" fill="none" xmlns="http://www.w3.org/2000/svg">
<path d="M3.04917 27.8865H22.0013V47.1069C21.9938 47.4843 22.0659 47.8593 22.2134 48.21C22.3608 48.5607 22.5806 48.88 22.8598 49.1493C23.1391 49.4187 23.4723 49.6327 23.84 49.7787C24.2076 49.9248 24.6023 50 25.001 50C25.3997 50 25.7945 49.9248 26.1621 49.7787C26.5297 49.6327 26.8629 49.4187 27.1422 49.1493C27.4215 48.88 27.6413 48.5607 27.7887 48.21C27.9362 47.8593 28.0083 47.4843 28.0008 47.1069V27.8865H46.9508C47.7595 27.8865 48.5351 27.5824 49.1069 27.0411C49.6788 26.4998 50 25.7655 50 25C50 24.2345 49.6788 23.5002 49.1069 22.9589C48.5351 22.4176 47.7595 22.1135 46.9508 22.1135H27.9998V2.89309C28.0072 2.51572 27.9351 2.1407 27.7877 1.79001C27.6403 1.43933 27.4205 1.12004 27.1412 0.850677C26.8619 0.581317 26.5287 0.367349 26.1611 0.221289C25.7934 0.0752293 25.3987 0 25 0C24.6013 0 24.2066 0.0752293 23.8389 0.221289C23.4713 0.367349 23.1381 0.581317 22.8588 0.850677C22.5795 1.12004 22.3597 1.43933 22.2123 1.79001C22.0649 2.1407 21.9928 2.51572 22.0002 2.89309V22.1135H3.04917C2.24048 22.1135 1.46491 22.4176 0.893081 22.9589C0.32125 23.5002 0 24.2345 0 25C0 25.7655 0.32125 26.4998 0.893081 27.0411C1.46491 27.5824 2.24048 27.8865 3.04917 27.8865V27.8865Z"/>
</svg>
