<svg width="50" height="50" viewBox="0 0 50 50" fill="none" xmlns="http://www.w3.org/2000/svg">
<path d="M40.884 0.117913C40.7093 0.0786863 40.5285 0.0743979 40.3521 0.105497C40.1757 0.136596 40.0073 0.202449 39.8566 0.29905C39.706 0.395651 39.5761 0.521143 39.4745 0.668263C39.373 0.815383 39.3017 0.981222 39.265 1.15604C39.1821 1.50997 39.2417 1.8822 39.4312 2.19271C39.6206 2.50322 39.9247 2.72711 40.278 2.81634C40.5285 2.875 40.7617 2.99125 40.9591 3.15573C41.1565 3.32021 41.3126 3.52845 41.415 3.76378C41.5191 4.00378 41.6911 4.20832 41.9099 4.35247C42.1287 4.49663 42.3848 4.57412 42.647 4.57549C42.8392 4.57557 43.0291 4.53332 43.203 4.45181C43.5328 4.29454 43.7879 4.01492 43.9136 3.6726C44.0394 3.33028 44.0259 2.95239 43.876 2.61987C43.6074 1.99911 43.1969 1.44962 42.6774 1.0152C42.1579 0.580774 41.5438 0.273534 40.884 0.117913V0.117913Z"/>
<path d="M24.021 0.000976562H21.2589C20.8974 0.0106565 20.5539 0.160574 20.3017 0.419003C20.0494 0.677433 19.9082 1.02391 19.9082 1.38458C19.9082 1.74525 20.0494 2.09173 20.3017 2.35016C20.5539 2.60858 20.8974 2.7585 21.2589 2.76818H24.021C24.3825 2.7585 24.726 2.60858 24.9782 2.35016C25.2305 2.09173 25.3717 1.74525 25.3717 1.38458C25.3717 1.02391 25.2305 0.677433 24.9782 0.419003C24.726 0.160574 24.3825 0.0106565 24.021 0.000976562V0.000976562Z"/>
<path d="M33.6859 0.000976562H30.9259C30.5644 0.0106565 30.2209 0.160574 29.9686 0.419003C29.7164 0.677433 29.5752 1.02391 29.5752 1.38458C29.5752 1.74525 29.7164 2.09173 29.9686 2.35016C30.2209 2.60858 30.5644 2.7585 30.9259 2.76818H33.6859C34.0475 2.7585 34.391 2.60858 34.6432 2.35016C34.8955 2.09173 35.0367 1.74525 35.0367 1.38458C35.0367 1.02391 34.8955 0.677433 34.6432 0.419003C34.391 0.160574 34.0475 0.0106565 33.6859 0.000976562V0.000976562Z"/>
<path d="M42.9189 8.84131C42.556 8.8463 42.2099 8.99485 41.9567 9.25422C41.7036 9.51359 41.5641 9.86263 41.5689 10.2245V13.0536C41.5619 13.2347 41.5916 13.4155 41.6563 13.585C41.721 13.7544 41.8193 13.909 41.9454 14.0396C42.0714 14.1702 42.2226 14.2742 42.3899 14.3452C42.5572 14.4161 42.7371 14.4528 42.9189 14.4528C43.1007 14.4528 43.2806 14.4161 43.4479 14.3452C43.6151 14.2742 43.7663 14.1702 43.8924 14.0396C44.0184 13.909 44.1167 13.7544 44.1814 13.585C44.2461 13.4155 44.2759 13.2347 44.2689 13.0536V10.2215C44.2731 9.86003 44.1334 9.51166 43.8802 9.25288C43.6271 8.9941 43.2813 8.84604 42.9189 8.84131V8.84131Z"/>
<path d="M17.578 1.38413C17.5801 1.1132 17.5022 0.847652 17.3541 0.62051C17.206 0.393368 16.9942 0.214658 16.745 0.106681C16.4983 0.000968943 16.2251 -0.0270106 15.962 0.0264595C15.6989 0.0799297 15.4585 0.212343 15.273 0.405897L6.12698 9.77985C6.01589 9.89778 5.92682 10.0345 5.86398 10.1836C5.84617 10.2255 5.83114 10.2685 5.81898 10.3123C5.77887 10.4289 5.75465 10.5504 5.74698 10.6734C5.74698 10.7023 5.73098 10.7292 5.73098 10.7581V12.1402C5.72399 12.3214 5.75373 12.502 5.81842 12.6715C5.88311 12.8409 5.98143 12.9956 6.10748 13.1263C6.23353 13.2569 6.38472 13.3607 6.55199 13.4317C6.71927 13.5027 6.89919 13.5393 7.08098 13.5393C7.26277 13.5393 7.44269 13.5027 7.60997 13.4317C7.77724 13.3607 7.92843 13.2569 8.05448 13.1263C8.18053 12.9956 8.27885 12.8409 8.34354 12.6715C8.40823 12.502 8.43797 12.3214 8.43098 12.1402H12.359C13.0557 12.1382 13.7449 11.9975 14.3864 11.7263C15.0278 11.4552 15.6086 11.0592 16.0945 10.5614C16.5805 10.0636 16.9619 9.47402 17.2165 8.8273C17.4711 8.18058 17.5936 7.48967 17.577 6.79511L17.578 1.38413ZM12.36 9.37095H10.341L13.771 5.85668C13.8202 5.8271 13.867 5.79379 13.911 5.75698L14.877 4.7757V6.78914C14.8856 7.12451 14.827 7.45823 14.7045 7.77067C14.582 8.0831 14.398 8.36789 14.1635 8.60842C13.929 8.84896 13.6487 9.04037 13.339 9.17131C13.0292 9.30225 12.6964 9.37013 12.36 9.37095V9.37095Z"/>
<path d="M8.43196 19.2125C8.43895 19.0314 8.40921 18.8507 8.34452 18.6813C8.27982 18.5119 8.18151 18.3573 8.05546 18.2266C7.92941 18.096 7.77822 17.9921 7.61095 17.9211C7.44367 17.8501 7.26375 17.8135 7.08196 17.8135C6.90017 17.8135 6.72025 17.8501 6.55297 17.9211C6.38569 17.9921 6.2345 18.096 6.10845 18.2266C5.98241 18.3573 5.88409 18.5119 5.8194 18.6813C5.7547 18.8507 5.72496 19.0314 5.73196 19.2125V22.0417C5.72496 22.2229 5.7547 22.4035 5.8194 22.5729C5.88409 22.7424 5.98241 22.897 6.10845 23.0276C6.2345 23.1582 6.38569 23.2622 6.55297 23.3332C6.72025 23.4041 6.90017 23.4408 7.08196 23.4408C7.26375 23.4408 7.44367 23.4041 7.61095 23.3332C7.77822 23.2622 7.92941 23.1582 8.05546 23.0276C8.18151 22.897 8.27982 22.7424 8.34452 22.5729C8.40921 22.4035 8.43895 22.2229 8.43196 22.0417V19.2125Z"/>
<path d="M42.9189 28.6455C42.556 28.6505 42.2099 28.7989 41.9567 29.0583C41.7036 29.3177 41.5641 29.6667 41.5689 30.0286V32.8547C41.5619 33.0359 41.5916 33.2166 41.6563 33.386C41.721 33.5554 41.8193 33.7101 41.9454 33.8408C42.0714 33.9714 42.2226 34.0753 42.3899 34.1463C42.5572 34.2173 42.7371 34.2538 42.9189 34.2538C43.1007 34.2538 43.2806 34.2173 43.4479 34.1463C43.6151 34.0753 43.7663 33.9714 43.8924 33.8408C44.0184 33.7101 44.1167 33.5554 44.1814 33.386C44.2461 33.2166 44.2759 33.0359 44.2689 32.8547V30.0286C44.2714 29.8494 44.2385 29.6715 44.172 29.5049C44.1055 29.3384 44.0067 29.1865 43.8813 29.0581C43.7559 28.9296 43.6064 28.8271 43.4413 28.7563C43.2761 28.6855 43.0986 28.6478 42.9189 28.6455V28.6455Z"/>
<path d="M42.9189 18.7417C42.556 18.747 42.2101 18.8955 41.957 19.1549C41.7039 19.4142 41.5643 19.7631 41.5689 20.1249V22.954C41.5619 23.1351 41.5916 23.3159 41.6563 23.4853C41.721 23.6548 41.8193 23.8094 41.9454 23.94C42.0714 24.0706 42.2226 24.1746 42.3899 24.2456C42.5572 24.3165 42.7371 24.3532 42.9189 24.3532C43.1007 24.3532 43.2806 24.3165 43.4479 24.2456C43.6151 24.1746 43.7663 24.0706 43.8924 23.94C44.0184 23.8094 44.1167 23.6548 44.1814 23.4853C44.2461 23.3159 44.2759 23.1351 44.2689 22.954V20.1249C44.2737 19.763 44.1342 19.414 43.881 19.1546C43.6279 18.8952 43.2818 18.7467 42.9189 18.7417V18.7417Z"/>
<path d="M7.08098 27.7266C6.71815 27.7318 6.37223 27.8804 6.11913 28.1397C5.86603 28.399 5.72644 28.748 5.73098 29.1098V31.9388C5.72399 32.12 5.75373 32.3008 5.81842 32.4702C5.88311 32.6396 5.98143 32.7942 6.10748 32.9249C6.23353 33.0555 6.38472 33.1594 6.55199 33.2304C6.71927 33.3014 6.89919 33.3379 7.08098 33.3379C7.26277 33.3379 7.44269 33.3014 7.60997 33.2304C7.77724 33.1594 7.92843 33.0555 8.05448 32.9249C8.18053 32.7942 8.27885 32.6396 8.34354 32.4702C8.40823 32.3008 8.43797 32.12 8.43098 31.9388V29.1098C8.43579 28.7479 8.29628 28.3988 8.04313 28.1395C7.78997 27.8801 7.4439 27.7316 7.08098 27.7266V27.7266Z"/>
<path d="M42.9189 38.5464C42.556 38.5514 42.2099 38.6998 41.9567 38.9592C41.7036 39.2185 41.5641 39.5676 41.5689 39.9295V42.7587C41.5619 42.9398 41.5916 43.1205 41.6563 43.2899C41.721 43.4593 41.8193 43.6139 41.9454 43.7446C42.0714 43.8752 42.2226 43.9791 42.3899 44.0501C42.5572 44.1211 42.7371 44.1577 42.9189 44.1577C43.1007 44.1577 43.2806 44.1211 43.4479 44.0501C43.6151 43.9791 43.7663 43.8752 43.8924 43.7446C44.0184 43.6139 44.1167 43.4593 44.1814 43.2899C44.2461 43.1205 44.2759 42.9398 44.2689 42.7587V39.9295C44.2714 39.7503 44.2385 39.5723 44.172 39.4058C44.1055 39.2393 44.0067 39.0874 43.8813 38.9589C43.7559 38.8305 43.6064 38.728 43.4413 38.6572C43.2761 38.5864 43.0986 38.5487 42.9189 38.5464V38.5464Z"/>
<path d="M8.43196 41.8435V39.0143C8.43895 38.8331 8.40921 38.6525 8.34452 38.4831C8.27982 38.3136 8.18151 38.159 8.05546 38.0284C7.92941 37.8978 7.77822 37.7938 7.61095 37.7228C7.44367 37.6519 7.26375 37.6152 7.08196 37.6152C6.90017 37.6152 6.72025 37.6519 6.55297 37.7228C6.38569 37.7938 6.2345 37.8978 6.10845 38.0284C5.98241 38.159 5.88409 38.3136 5.8194 38.4831C5.7547 38.6525 5.72496 38.8331 5.73196 39.0143V41.8435C5.72496 42.0246 5.7547 42.2053 5.8194 42.3747C5.88409 42.5441 5.98241 42.6987 6.10845 42.8294C6.2345 42.96 6.38569 43.0639 6.55297 43.1349C6.72025 43.2059 6.90017 43.2425 7.08196 43.2425C7.26375 43.2425 7.44367 43.2059 7.61095 43.1349C7.77822 43.0639 7.92941 42.96 8.05546 42.8294C8.18151 42.6987 8.27982 42.5441 8.34452 42.3747C8.40921 42.2053 8.43895 42.0246 8.43196 41.8435V41.8435Z"/>
<path d="M40.1949 47.2026C40.0884 47.2222 39.9803 47.2319 39.8719 47.2316H37.6769C37.3154 47.2413 36.9719 47.3913 36.7196 47.6497C36.4673 47.9082 36.3262 48.2545 36.3262 48.6152C36.3262 48.9758 36.4673 49.3223 36.7196 49.5808C36.9719 49.8392 37.3154 49.9892 37.6769 49.9989H39.8709C40.1393 49.9992 40.4071 49.9748 40.6709 49.9261C41.0279 49.854 41.342 49.6448 41.5456 49.3436C41.7492 49.0425 41.8258 48.6736 41.7589 48.3166C41.7304 48.1406 41.6673 47.972 41.573 47.8205C41.4788 47.6691 41.3554 47.5377 41.21 47.4341C41.0645 47.3306 40.8999 47.2568 40.7257 47.2171C40.5515 47.1773 40.3711 47.1724 40.1949 47.2026V47.2026Z"/>
<path d="M11.4459 47.2327H10.1349C9.86427 47.229 9.59849 47.1607 9.35988 47.0333C9.2015 46.9508 9.02814 46.9007 8.85006 46.8863C8.67197 46.8718 8.49278 46.893 8.32308 46.9488C8.15339 47.0046 7.99664 47.0938 7.86211 47.211C7.72759 47.3283 7.61802 47.4714 7.53988 47.6316C7.37515 47.9569 7.34366 48.3332 7.45208 48.6812C7.56049 49.0292 7.80032 49.3215 8.12088 49.4964C8.74038 49.8243 9.43053 49.9972 10.1319 50H11.4469C11.8084 49.9903 12.1519 49.8403 12.4042 49.5819C12.6565 49.3234 12.7976 48.977 12.7976 48.6163C12.7976 48.2556 12.6565 47.9093 12.4042 47.6508C12.1519 47.3924 11.8084 47.2424 11.4469 47.2327H11.4459Z"/>
<path d="M30.7739 47.2324H28.0119C27.6503 47.2421 27.3069 47.3921 27.0546 47.6506C26.8023 47.909 26.6611 48.2554 26.6611 48.616C26.6611 48.9767 26.8023 49.3232 27.0546 49.5816C27.3069 49.84 27.6503 49.9901 28.0119 49.9997H30.7739C31.1354 49.9901 31.4789 49.84 31.7312 49.5816C31.9835 49.3232 32.1246 48.9767 32.1246 48.616C32.1246 48.2554 31.9835 47.909 31.7312 47.6506C31.4789 47.3921 31.1354 47.2421 30.7739 47.2324V47.2324Z"/>
<path d="M21.111 47.2324H18.349C17.9875 47.2421 17.644 47.3921 17.3917 47.6506C17.1395 47.909 16.9983 48.2554 16.9983 48.616C16.9983 48.9767 17.1395 49.3232 17.3917 49.5816C17.644 49.84 17.9875 49.9901 18.349 49.9997H21.111C21.4726 49.9901 21.8161 49.84 22.0683 49.5816C22.3206 49.3232 22.4618 48.9767 22.4618 48.616C22.4618 48.2554 22.3206 47.909 22.0683 47.6506C21.8161 47.3921 21.4726 47.2421 21.111 47.2324V47.2324Z"/>
</svg>
