<svg width="50" height="50" viewBox="0 0 50 50" fill="none" xmlns="http://www.w3.org/2000/svg">
<path d="M45.1337 6.49208H4.8709C3.62064 6.45587 2.40765 6.95269 1.49556 7.87462C0.583477 8.79655 0.0460154 10.0691 0 11.4156C0.0202238 12.3413 0.284941 13.2417 0.763133 14.0111C1.24132 14.7806 1.91318 15.3873 2.69997 15.7601V36.0997C2.72493 38.0862 3.47927 39.9812 4.79794 41.3699C6.11661 42.7586 7.89221 43.5281 9.73622 43.5099H40.2721C42.1159 43.5273 43.8911 42.7576 45.2096 41.369C46.5281 39.9805 47.2827 38.0859 47.3084 36.0997V15.7541C48.0928 15.3809 48.7624 14.775 49.239 14.0071C49.7156 13.2392 49.9796 12.341 50 11.4176C49.9549 10.0714 49.4185 8.7989 48.5072 7.87657C47.596 6.95425 46.3837 6.45669 45.1337 6.49208V6.49208ZM44.549 36.0978C44.547 36.6974 44.4344 37.2906 44.2177 37.8428C44.001 38.3951 43.6846 38.8954 43.2868 39.3147C42.889 39.734 42.4178 40.0639 41.9006 40.2853C41.3834 40.5067 40.8304 40.6151 40.274 40.6042H9.73808C9.18172 40.6158 8.6288 40.5079 8.11161 40.2866C7.59443 40.0654 7.12334 39.7354 6.72586 39.3158C6.32839 38.8963 6.01249 38.3956 5.79663 37.8431C5.58076 37.2905 5.46926 36.6973 5.46862 36.0978V16.5499H44.5481L44.549 36.0978ZM45.1337 13.4374H4.8709C4.60603 13.471 4.33755 13.4438 4.08313 13.3577C3.82871 13.2715 3.59412 13.1282 3.39479 12.9373C3.19547 12.7464 3.03593 12.5121 2.92668 12.25C2.81744 11.9879 2.76095 11.7039 2.76095 11.4166C2.76095 11.1293 2.81744 10.8452 2.92668 10.5831C3.03593 10.3209 3.19547 10.0868 3.39479 9.89588C3.59412 9.70498 3.82871 9.56171 4.08313 9.47552C4.33755 9.38933 4.60603 9.36217 4.8709 9.39581H45.1337C45.3986 9.36217 45.6671 9.38933 45.9215 9.47552C46.1759 9.56171 46.4105 9.70498 46.6099 9.89588C46.8092 10.0868 46.9687 10.3209 47.078 10.5831C47.1872 10.8452 47.2437 11.1293 47.2437 11.4166C47.2437 11.7039 47.1872 11.9879 47.078 12.25C46.9687 12.5121 46.8092 12.7464 46.6099 12.9373C46.4105 13.1282 46.1759 13.2715 45.9215 13.3577C45.6671 13.4438 45.3986 13.471 45.1337 13.4374V13.4374Z"/>
<path d="M21.9169 30.744C22.0162 30.9228 22.1461 31.0774 22.299 31.1991C22.452 31.3207 22.625 31.4069 22.8079 31.4525C22.9908 31.4982 23.1799 31.5024 23.3643 31.465C23.5487 31.4275 23.7246 31.3491 23.8817 31.2344L33.3688 24.3024C33.6224 24.1222 33.8157 23.8523 33.9183 23.5353C34.0209 23.2182 34.027 22.8718 33.9357 22.5503C33.8444 22.2289 33.6609 21.9507 33.4138 21.7592C33.1668 21.5678 32.8702 21.474 32.5707 21.4925C32.3038 21.5004 32.0443 21.5931 31.8222 21.7599L23.5552 27.7995L21.5904 24.1709C21.5009 23.9906 21.3805 23.8321 21.236 23.7047C21.0915 23.5773 20.9259 23.4835 20.7489 23.4289C20.5718 23.3742 20.3869 23.3597 20.2049 23.3862C20.0228 23.4128 19.8473 23.48 19.6885 23.5837C19.5297 23.6874 19.3909 23.8255 19.2801 23.9901C19.1694 24.1548 19.0888 24.3426 19.0433 24.5427C18.9977 24.7427 18.988 24.951 19.0147 25.1553C19.0415 25.3596 19.1041 25.5559 19.199 25.7326L21.9169 30.744Z"/>
</svg>
