<svg width="94" height="93" viewBox="0 0 94 93" fill="none" xmlns="http://www.w3.org/2000/svg">
<g id="Grupo 154">
<path id="Elipse 2" d="M47 93C72.9574 93 94 72.1812 94 46.5C94 20.8188 72.9574 0 47 0C21.0426 0 0 20.8188 0 46.5C0 72.1812 21.0426 93 47 93Z" fill="#01A6D9"/>
<g id="Grupo 153">
<path id="Trazado 46" d="M72.2832 36.934C72.2542 36.926 72.2258 36.923 72.1968 36.916L47.8301 20.739C47.6028 20.591 47.3372 20.5121 47.0659 20.5121C46.7947 20.5121 46.5291 20.591 46.3018 20.739L22.269 36.839C22.0685 36.8285 21.8682 36.8595 21.6802 36.93C21.3412 37.23 21.001 37.536 21.001 37.99V65.538C21.0092 65.7071 21.051 65.873 21.124 66.0258C21.197 66.1786 21.2999 66.3154 21.4263 66.4281C21.5527 66.5408 21.7002 66.6272 21.8604 66.6823C22.0205 66.7374 22.1899 66.7601 22.3589 66.749H71.6011C71.9264 66.7168 72.233 66.5822 72.4771 66.3646C72.7211 66.147 72.8899 65.8576 72.959 65.538V37.99C72.9836 37.7633 72.9301 37.5349 72.8071 37.3429C72.6842 37.1508 72.4994 37.0065 72.2832 36.934ZM23.5469 40.271L24.7578 41.059L37.2578 49.267L23.5498 62.689L23.5469 40.271ZM39.3179 50.622L46.1328 55.098C46.3131 55.2141 46.5183 55.2866 46.7314 55.3097C46.9446 55.3328 47.1599 55.3058 47.3608 55.231C47.4721 55.2185 47.5771 55.172 47.6611 55.098L54.5889 50.573L68.7988 64.482H25.1631L39.3179 50.622ZM56.6548 49.222L70.2451 40.345V62.527L56.6548 49.222ZM46.981 23.012L69.396 37.997L46.981 52.679L24.5659 37.997L46.981 23.012Z" fill="white"/>
<path id="Trazado 47" d="M46.352 47.62L53.4843 40.488L53.412 40.423C53.6115 40.1873 53.7154 39.8856 53.7035 39.5771C53.6917 39.2686 53.565 38.9757 53.3481 38.756C53.2322 38.6401 53.0947 38.5482 52.9433 38.4854C52.7918 38.4227 52.6296 38.3904 52.4657 38.3904C52.3018 38.3904 52.1396 38.4227 51.9882 38.4854C51.8368 38.5482 51.6988 38.6401 51.5829 38.756L47.7099 42.629V28.6H45.163V42.8L44.286 41.923L41.0858 38.623L41.018 38.691C40.782 38.4934 40.4808 38.3909 40.1732 38.4035C39.8657 38.4161 39.5739 38.5428 39.3549 38.759C39.1386 38.9781 39.0123 39.27 38.9999 39.5775C38.9875 39.8851 39.0901 40.1862 39.288 40.422L39.2191 40.491L46.352 47.62Z" fill="white"/>
</g>
</g>
</svg>
