<svg width="94" height="93" viewBox="0 0 94 93" fill="none" xmlns="http://www.w3.org/2000/svg">
<path d="M47 93C72.9574 93 94 72.1812 94 46.5C94 20.8188 72.9574 0 47 0C21.0426 0 0 20.8188 0 46.5C0 72.1812 21.0426 93 47 93Z" fill="#5D6FE6"/>
<g clip-path="url(#clip0_248_1690)">
<path d="M70.7074 45.5279L23.7612 22.0551C23.6678 22.0086 23.5623 21.9909 23.4587 22.0043C23.3552 22.0177 23.258 22.0615 23.1794 22.1303C23.1009 22.1991 23.0447 22.2896 23.0177 22.3905C22.9907 22.4913 22.9942 22.5979 23.0279 22.6967L30.9964 45.8669C31.0351 45.9777 31.0351 46.0984 30.9964 46.2092L23.0301 69.2987C22.9957 69.3975 22.9916 69.5043 23.0182 69.6055C23.0449 69.7067 23.1008 69.7976 23.1794 69.8666C23.2581 69.9356 23.3555 69.9796 23.4593 69.993C23.5631 70.0063 23.6688 69.9883 23.7623 69.9414L70.7063 46.4687C70.7939 46.4252 70.8678 46.3582 70.9193 46.2751C70.9709 46.1921 70.9979 46.0963 70.9981 45.9986C70.9982 45.9009 70.9712 45.8051 70.9199 45.7219C70.8685 45.6388 70.7948 45.5716 70.7074 45.5279ZM33.1673 48.0268L44.2924 46.5195C44.4189 46.503 44.5349 46.441 44.6191 46.3451C44.7034 46.2492 44.7502 46.1259 44.7502 45.9983C44.7502 45.8706 44.7034 45.7474 44.6191 45.6515C44.5349 45.5556 44.4189 45.4936 44.2924 45.477L33.1387 43.9664C33.0423 43.9531 32.9514 43.9134 32.8761 43.8516C32.8009 43.7898 32.7445 43.7084 32.7127 43.6163L27.1281 27.3833C27.0944 27.2845 27.0908 27.1779 27.1179 27.077C27.1449 26.9762 27.201 26.8856 27.2796 26.8169C27.3582 26.7481 27.4554 26.7043 27.5589 26.6909C27.6625 26.6775 27.768 26.6952 27.8614 26.7417L65.4431 45.5279C65.5302 45.5717 65.6038 45.639 65.655 45.722C65.7062 45.8051 65.7332 45.9007 65.7332 45.9983C65.7332 46.0958 65.7062 46.1915 65.655 46.2745C65.6038 46.3576 65.5302 46.4248 65.4431 46.4687L27.8733 65.2526C27.7799 65.2994 27.6749 65.3172 27.5713 65.3039C27.4677 65.2906 27.3706 65.2467 27.292 65.1779C27.2135 65.109 27.1571 65.0184 27.1303 64.9174C27.1035 64.8164 27.1075 64.7098 27.1416 64.611L32.7435 48.378C32.7752 48.286 32.8322 48.2045 32.9074 48.1427C32.9827 48.0809 33.0735 48.0412 33.17 48.028L33.1673 48.0268Z" fill="white"/>
</g>
<defs>
<clipPath id="clip0_248_1690">
<rect width="48" height="48" fill="white" transform="translate(23 21.9999)"/>
</clipPath>
</defs>
</svg>
