<svg width="102" height="101" viewBox="0 0 102 101" fill="none" xmlns="http://www.w3.org/2000/svg">
<g filter="url(#filter0_d_26_651)">
<path d="M51 93C76.9574 93 98 72.1812 98 46.5C98 20.8188 76.9574 0 51 0C25.0426 0 4 20.8188 4 46.5C4 72.1812 25.0426 93 51 93Z" fill="#E8C500"/>
<g clip-path="url(#clip0_26_651)">
<path d="M50.9951 18.0421C58.4074 18.0506 65.5139 20.9989 70.7552 26.2402C75.9965 31.4815 78.9443 38.5877 78.9528 46C78.9447 53.4124 75.9966 60.5188 70.7552 65.7602C65.5139 71.0015 58.4075 73.9497 50.9951 73.9579C43.5826 73.9497 36.476 71.0016 31.2345 65.7602C25.993 60.5189 23.0448 53.4125 23.0363 46C23.0451 38.5876 25.9936 31.4814 31.2351 26.2401C36.4765 20.9989 43.5827 18.0506 50.9951 18.0421ZM50.9951 15C46.9242 15 42.8932 15.8018 39.1321 17.3597C35.371 18.9176 31.9535 21.2011 29.0748 24.0797C26.1962 26.9583 23.913 30.3757 22.3551 34.1368C20.7972 37.8979 19.9952 41.929 19.9952 46C19.9952 50.071 20.7972 54.1021 22.3551 57.8632C23.913 61.6243 26.1962 65.0417 29.0748 67.9203C31.9535 70.7989 35.371 73.0824 39.1321 74.6403C42.8932 76.1982 46.9242 77 50.9951 77C55.0661 77 59.0971 76.1982 62.8581 74.6403C66.6192 73.0823 70.0363 70.7989 72.9149 67.9202C75.7934 65.0416 78.0769 61.6242 79.6346 57.8631C81.1924 54.102 81.994 50.0709 81.9939 46C81.9939 37.7785 78.7282 29.8937 72.9149 24.0801C67.1015 18.2665 59.2166 15.0003 50.9951 15Z" fill="white"/>
<path d="M68.85 47.5722L49.4798 47.5164V24.9381C49.4798 24.5346 49.6402 24.1478 49.9255 23.8625C50.2107 23.5773 50.5978 23.417 51.0012 23.417C51.4046 23.417 51.7917 23.5773 52.077 23.8625C52.3623 24.1478 52.522 24.5346 52.522 24.9381V44.4814L68.8558 44.5277C69.259 44.529 69.6455 44.6903 69.9298 44.9762C70.2141 45.262 70.3729 45.6491 70.372 46.0523C70.372 46.2521 70.333 46.45 70.2565 46.6345C70.18 46.8191 70.0677 46.9867 69.9263 47.1279C69.785 47.269 69.6172 47.3809 69.4326 47.4572C69.2479 47.5334 69.0498 47.5725 68.85 47.5722Z" fill="white"/>
</g>
</g>
<defs>
<filter id="filter0_d_26_651" x="0" y="0" width="102" height="101" filterUnits="userSpaceOnUse" color-interpolation-filters="sRGB">
<feFlood flood-opacity="0" result="BackgroundImageFix"/>
<feColorMatrix in="SourceAlpha" type="matrix" values="0 0 0 0 0 0 0 0 0 0 0 0 0 0 0 0 0 0 127 0" result="hardAlpha"/>
<feOffset dy="4"/>
<feGaussianBlur stdDeviation="2"/>
<feComposite in2="hardAlpha" operator="out"/>
<feColorMatrix type="matrix" values="0 0 0 0 0 0 0 0 0 0 0 0 0 0 0 0 0 0 0.25 0"/>
<feBlend mode="normal" in2="BackgroundImageFix" result="effect1_dropShadow_26_651"/>
<feBlend mode="normal" in="SourceGraphic" in2="effect1_dropShadow_26_651" result="shape"/>
</filter>
<clipPath id="clip0_26_651">
<rect width="62" height="62" fill="white" transform="translate(20 15)"/>
</clipPath>
</defs>
</svg>
