<svg width="52" height="53" viewBox="0 0 52 53" fill="none" xmlns="http://www.w3.org/2000/svg">
<path d="M7.94211 6.66533C7.94211 7.8436 7.93566 8.98519 7.94373 10.1268C7.96147 12.6029 9.86511 14.5305 12.2898 14.5353C14.721 14.5401 16.6246 12.6348 16.6521 10.1507C16.665 8.98997 16.6537 7.82765 16.6537 6.62228C22.9067 6.62228 29.0741 6.62228 35.3303 6.62228C35.3303 7.77344 35.3239 8.88156 35.3319 9.98967C35.3481 12.6109 37.2065 14.5401 39.7022 14.5337C42.1979 14.5274 44.0387 12.6013 44.0564 9.97053C44.0629 8.88315 44.058 7.79417 44.058 6.71635C48.2428 5.89045 51.5887 8.77154 51.9533 12.2234C51.9952 12.6188 51.9968 13.019 51.9968 13.4176C52.0001 24.0444 52.0017 34.6695 52.0001 45.2962C52.0001 49.3062 49.2785 52.0023 45.2341 52.0023C32.4103 52.0039 19.5866 52.0039 6.76282 52.0023C2.70549 52.0023 0.00651838 49.3269 0.00490513 45.2962C6.53663e-05 34.6121 -0.00154789 23.9312 0.00167862 13.2502C0.00329187 8.8959 3.41855 6.02597 7.94211 6.66533ZM48.0476 21.0867C33.2783 21.0867 18.646 21.0867 3.95092 21.0867C3.95092 21.4104 3.95092 21.6719 3.95092 21.935C3.94931 24.9372 3.9477 27.9379 3.9477 30.9402C3.94608 35.827 3.94447 40.7155 3.9477 45.6024C3.94931 47.0724 4.73658 47.927 6.2127 48.0753C6.47889 48.1024 6.74992 48.1056 7.01772 48.1056C16.2358 48.1072 25.4556 48.1056 34.6737 48.1056C38.1938 48.1056 41.7156 48.1119 45.2357 48.1024C47.1926 48.0976 48.0444 47.2526 48.0444 45.3425C48.0476 38.622 48.046 31.9016 48.046 25.1812C48.0476 23.8323 48.0476 22.4818 48.0476 21.0867Z" fill="#5D6FE6"/>
<path d="M9.35697 6.52661C9.35697 5.35791 9.34891 4.18921 9.35858 3.02051C9.37149 1.30333 10.583 0.032589 12.2237 0.000700825C13.9257 -0.0311873 15.2308 1.19172 15.2566 2.94557C15.2937 5.36269 15.2905 7.77981 15.255 10.1969C15.2292 11.9396 13.9063 13.1833 12.2173 13.1402C10.5588 13.0988 9.36988 11.844 9.35697 10.1108C9.35213 8.91663 9.35859 7.72242 9.35697 6.52661Z" fill="#5D6FE6"/>
<path d="M42.6432 6.6366C42.6432 7.8053 42.6593 8.974 42.6384 10.1427C42.6077 11.871 41.3962 13.1131 39.7442 13.1418C38.0906 13.1705 36.7887 11.9651 36.7548 10.2479C36.7064 7.8053 36.7064 5.36108 36.75 2.91845C36.7806 1.1933 38.0616 -0.0120752 39.7216 0.000680107C41.38 0.0150298 42.6045 1.24432 42.64 2.97106C42.6626 4.19238 42.6432 5.41529 42.6432 6.6366Z" fill="#5D6FE6"/>
<path d="M38.5713 45.1208C37.7389 45.1208 36.9048 45.1384 36.0724 45.116C35.127 45.0905 34.5592 44.5468 34.5446 43.6173C34.5204 41.9448 34.5172 40.2706 34.5446 38.5965C34.5592 37.6606 35.1044 37.1169 36.0676 37.0978C37.7599 37.0643 39.4538 37.0595 41.1461 37.0962C42.1334 37.1169 42.669 37.6845 42.6835 38.6731C42.7077 40.293 42.7093 41.9145 42.6851 43.5344C42.669 44.558 42.0979 45.0937 41.0703 45.1224C40.6411 45.1336 40.2104 45.124 39.7797 45.124C39.378 45.1208 38.9746 45.1208 38.5713 45.1208Z" fill="#5D6FE6"/>
<path d="M34.5512 27.9921C34.5512 27.171 34.5334 26.3483 34.556 25.5272C34.5818 24.5641 35.1368 23.9885 36.1128 23.971C37.7744 23.9423 39.4377 23.9391 41.101 23.971C42.106 23.9901 42.6707 24.5833 42.6868 25.5989C42.7126 27.1869 42.7142 28.7766 42.6949 30.3662C42.682 31.4679 42.1109 32.0196 40.9897 32.0323C39.3812 32.0499 37.7712 32.0515 36.1628 32.0339C35.1319 32.0228 34.5673 31.4663 34.5431 30.4571C34.5237 29.6359 34.5382 28.8148 34.5382 27.9921C34.5415 27.9921 34.5463 27.9921 34.5512 27.9921Z" fill="#5D6FE6"/>
<path d="M30.055 28.0734C30.055 28.8977 30.0776 29.722 30.0502 30.5448C30.0179 31.4711 29.4533 32.0164 28.5111 32.026C26.8446 32.0435 25.1781 32.0467 23.5117 32.0307C22.5276 32.0212 21.95 31.4615 21.9371 30.4937C21.9129 28.8467 21.9145 27.1997 21.9355 25.5527C21.9468 24.5849 22.5131 23.9949 23.4842 23.9774C25.1765 23.9471 26.8721 23.9503 28.5644 23.9806C29.4517 23.9965 30.0163 24.5689 30.0486 25.4443C30.0792 26.3196 30.055 27.1965 30.055 28.0734Z" fill="#5D6FE6"/>
<path d="M17.4458 28.0766C17.4458 28.9009 17.4651 29.7236 17.4393 30.5479C17.4135 31.4264 16.8585 32.0116 15.9745 32.0275C14.2548 32.0578 12.5334 32.0531 10.8137 32.0259C9.92478 32.0116 9.34724 31.4647 9.32788 30.5703C9.28916 28.8706 9.294 27.1694 9.33272 25.4713C9.35369 24.5402 9.92156 23.9965 10.8718 23.979C12.5641 23.9487 14.2596 23.9471 15.9519 23.9838C16.8795 24.0045 17.42 24.6008 17.4425 25.5287C17.4619 26.3754 17.4458 27.2268 17.4458 28.0766Z" fill="#5D6FE6"/>
<path d="M17.4458 41.1204C17.4458 41.9176 17.4555 42.7148 17.4442 43.5105C17.4281 44.5484 16.8941 45.1049 15.8648 45.1144C14.1983 45.132 12.5318 45.1304 10.867 45.1128C9.92159 45.1033 9.34566 44.5739 9.3263 43.6332C9.29081 41.9607 9.2892 40.2866 9.32308 38.614C9.34405 37.6223 9.90062 37.0977 10.9025 37.0834C12.5689 37.0595 14.2354 37.0579 15.9003 37.085C16.886 37.1009 17.4119 37.6685 17.4458 38.6475C17.4474 38.6746 17.4458 38.7001 17.4458 38.7272C17.4458 39.5276 17.4458 40.3248 17.4458 41.1204Z" fill="#5D6FE6"/>
<path d="M30.0566 41.1061C30.0566 41.9288 30.0728 42.7531 30.0518 43.5758C30.0276 44.5596 29.4791 45.1049 28.4934 45.1144C26.8269 45.1304 25.1604 45.132 23.4939 45.1144C22.5147 45.1049 21.9484 44.5452 21.9371 43.5663C21.9178 41.9192 21.9178 40.2722 21.9387 38.6252C21.95 37.651 22.513 37.0962 23.502 37.0834C25.1685 37.0643 26.835 37.0627 28.5014 37.0818C29.4839 37.093 30.0308 37.6526 30.0534 38.6332C30.0728 39.4591 30.0566 40.2834 30.0566 41.1061Z" fill="#5D6FE6"/>
</svg>
