<svg width="142" height="146" viewBox="0 0 142 146" fill="none" xmlns="http://www.w3.org/2000/svg">
<rect width="142" height="146" fill="#707070"/>
<g clip-path="url(#clip0_9_17)">
<rect width="1920" height="1080" transform="translate(-511 -810)" fill="#DFE1E5"/>
<rect x="101" y="-461" width="684" height="756" fill="white"/>
<g filter="url(#filter0_d_9_17)">
<path fill-rule="evenodd" clip-rule="evenodd" d="M127.483 103.053C134.141 92.6443 138 80.2728 138 67C138 29.9969 108.003 0 71 0C33.9969 0 4 29.9969 4 67C4 104.003 33.9969 134 71 134C81.1145 134 90.7056 131.759 99.3036 127.746L136.79 137.79L127.483 103.053Z" fill="#5D6FE6"/>
</g>
<g clip-path="url(#clip1_9_17)">
<path d="M51.5583 68.8475C48.8737 64.5956 44.4312 62.5133 40.9489 64.1308C37.4666 65.7482 35.8759 71.8257 38.3503 77.2688C40.8247 82.707 45.979 85.5593 49.8817 83.7288C51.5583 82.9685 52.6905 81.477 53.321 79.5642" fill="white"/>
<path d="M47.369 85.3463C45.8499 85.3317 44.3643 84.9201 43.0507 84.155C40.5476 82.6441 38.57 80.3874 37.3901 77.6901C34.6625 71.7821 36.0908 65.2349 40.538 63.1526C44.9805 61.0654 49.4278 63.4915 52.4468 68.2954C52.5232 68.4116 52.5758 68.5424 52.5996 68.6828C52.6235 68.8184 52.6188 68.9588 52.5853 69.0944C52.5567 69.23 52.4993 69.3559 52.4181 69.4673C52.3369 69.5787 52.2318 69.6707 52.1172 69.7434C52.0025 69.8208 51.8783 69.8789 51.7446 69.9032C51.6108 69.9274 51.4723 69.9274 51.3385 69.9032C51.071 69.845 50.837 69.6804 50.6889 69.4431C48.2575 65.5351 44.3165 63.7482 41.4217 65.109C38.527 66.4697 37.0605 71.9564 39.2817 76.8039C40.4138 79.2252 42.0905 81.1816 44.1064 82.2857C46.1174 83.3898 47.8801 83.5206 49.4756 82.7555C51.071 81.9903 51.7828 80.9298 52.3274 79.2688C52.3656 79.1332 52.4277 79.0024 52.5184 78.891C52.6044 78.7797 52.7191 78.6925 52.848 78.6247C52.9722 78.5618 53.1155 78.5279 53.2541 78.5182C53.3974 78.5133 53.5359 78.5375 53.6697 78.5908C53.9324 78.678 54.1474 78.8668 54.2715 79.1138C54.3957 79.3608 54.4196 79.6465 54.3432 79.908C54.0375 80.9443 53.5264 81.8983 52.8433 82.7264C52.1554 83.5545 51.3147 84.2276 50.3593 84.7119C49.4087 85.1283 48.3912 85.3463 47.369 85.3463Z" fill="#072A42"/>
<path d="M86.7018 105.409C81.2896 109.448 74.9985 111.487 68.5449 110.809C51.7685 109.022 39.984 89.724 42.253 67.6126C44.5172 45.5061 59.9465 29.0944 76.7229 30.8378C93.4993 32.5811 105.241 51.9225 102.977 74.0291C101.969 84.155 95.9308 99.3317 86.7018 105.409Z" fill="white"/>
<path d="M71.0193 112C70.1404 112 69.2996 111.961 68.4207 111.874C59.9895 110.978 52.485 105.835 47.369 97.3753C42.2482 88.9152 40.0699 78.4116 41.202 67.5303C43.5093 44.9152 59.4879 27.9516 76.8041 29.7772C94.1251 31.6029 106.368 51.5012 104.023 74.1211C102.891 85.2591 96.3081 100.31 87.2893 106.305C82.2593 110.044 76.6799 112 71.0193 112ZM74.2485 31.7772C58.9816 31.7772 45.3531 47.3366 43.2991 67.7433C42.21 78.2034 44.307 88.3148 49.1269 96.2712C53.9515 104.218 60.8684 108.939 68.6261 109.748C74.6641 110.387 80.6638 108.6 86.0712 104.562H86.1142C92.821 100.184 100.583 87.5157 101.964 73.9516C104.147 52.4843 92.7828 33.6465 76.5939 31.9467C75.8201 31.8499 75.0367 31.7918 74.2485 31.7772Z" fill="#072A42"/>
<path d="M99.5802 69.4431C102.265 65.1913 106.707 63.1089 110.147 64.7215C113.586 66.339 115.263 72.4165 112.788 77.8596C110.314 83.3027 105.155 86.1501 101.252 84.3244C100.421 83.9177 99.6805 83.3366 99.0882 82.615C98.4958 81.8983 98.0611 81.0605 97.8127 80.1598" fill="white"/>
<path d="M103.77 85.9371C102.743 85.9419 101.73 85.7288 100.794 85.2978C99.843 84.8136 98.9975 84.1404 98.3097 83.3124C97.6266 82.4843 97.1154 81.5254 96.8097 80.4891C96.7237 80.2228 96.7428 79.9274 96.867 79.6707C96.996 79.414 97.2158 79.2252 97.4785 79.1332C97.746 79.046 98.0374 79.0654 98.2905 79.1913C98.5389 79.3172 98.73 79.5448 98.8208 79.816C99.3271 81.5157 100.33 82.7458 101.673 83.3414C103.015 83.9371 105.15 83.937 107.037 82.8765C109.163 81.6029 110.835 79.6852 111.819 77.3898C114.045 72.5036 113.118 67.2736 109.722 65.6998C106.325 64.1259 102.886 66.1259 100.454 70.0339C100.12 70.5133 99.4752 70.6441 98.988 70.3293C98.8733 70.2567 98.773 70.1598 98.6966 70.0484C98.6202 69.937 98.5628 69.8063 98.5389 69.6707C98.5103 69.54 98.5103 69.3995 98.5389 69.2591C98.5676 69.1283 98.6202 68.9976 98.6966 68.8814C101.716 64.0775 106.707 61.908 110.605 63.7385C114.503 65.5642 116.433 72.3245 113.749 78.2809C112.55 80.9782 110.558 83.2397 108.045 84.7409C106.741 85.4915 105.27 85.8983 103.77 85.9371Z" fill="#072A42"/>
<path d="M69.2136 87.1283L68.8362 87.0412C68.5448 86.9588 61.7473 84.4068 62.1247 79.6465V79.5642C62.5403 77.2252 63.1326 76.5859 64.1788 75.6513C65.2249 74.7167 66.1946 73.8257 68.0767 70.6344C69.9636 67.4479 69.2518 65.7046 68.9986 64.0484L68.8697 62.9879C68.8505 62.7022 68.9365 62.4261 69.1181 62.2082C69.4954 61.7627 70.1594 61.7046 70.5989 62.0872C70.5989 62.0872 70.5989 62.0872 70.6037 62.0872C70.8138 62.2712 70.9476 62.5327 70.9715 62.8136C70.9954 63.1138 71.0384 63.414 71.0957 63.7094C71.3489 65.4528 71.8074 68.3874 69.8776 71.6998C67.9477 75.0121 66.4812 76.4165 65.6023 77.2252C64.7233 78.0339 64.5131 78.2034 64.1788 79.8644C64.0498 82.4552 67.9955 84.4988 69.548 85.0508C69.7964 85.1235 70.0066 85.2833 70.1451 85.506C70.2836 85.724 70.3362 85.9903 70.2932 86.247C70.2549 86.5036 70.1212 86.7361 69.9206 86.9007C69.7247 87.0557 69.4715 87.1428 69.2136 87.1283ZM61.3222 65.322C61.3604 62.9491 60.3573 61.0121 59.0818 60.9927C57.8064 60.9734 56.7459 62.8814 56.7077 65.2494C56.6695 67.6223 57.6727 69.5593 58.9481 69.5787C60.2235 69.5981 61.284 67.6949 61.3222 65.322ZM82.8372 66.1889C82.8707 63.816 81.8723 61.8789 80.5969 61.8596C79.3215 61.8402 78.261 63.7433 78.2228 66.1162C78.1846 68.4891 79.1877 70.4261 80.4631 70.4455C81.7386 70.4649 82.799 68.5569 82.8372 66.1889ZM71.1864 98.6925C65.9414 98.6925 62.4209 93.4237 62.2967 93.2106C62.1295 92.9782 62.0674 92.6925 62.1151 92.4116C62.139 92.276 62.1868 92.1453 62.2632 92.0242C62.3349 91.9031 62.4352 91.8014 62.5451 91.7191C62.6597 91.6416 62.7935 91.5835 62.9272 91.5593C63.061 91.5303 63.2043 91.5303 63.3428 91.5593C63.4766 91.5835 63.6103 91.6416 63.725 91.7191C63.8444 91.7966 63.9399 91.8983 64.0163 92.0194C64.0546 92.0581 67.2885 96.8668 71.645 96.5278C76.0063 96.1889 77.6018 92.9976 77.64 92.8717C77.7738 92.6198 77.9983 92.4358 78.261 92.3487C78.5285 92.2615 78.8151 92.2809 79.0635 92.4019C79.3071 92.5278 79.4887 92.7458 79.5746 93.0073C79.6606 93.2688 79.6415 93.5545 79.5221 93.8014C79.4361 94.0145 77.3391 98.2228 71.7644 98.6489L71.1864 98.6925Z" fill="#072A42"/>
<path d="M109.378 70.3051C109.177 70.1065 108.914 69.9951 108.637 69.9951C108.355 70.0048 108.088 70.1259 107.892 70.3341C107.696 70.5375 107.586 70.8136 107.586 71.1041C107.715 75.7772 105.948 78.4988 102.26 79.3075C101.768 79.4479 101.448 79.9274 101.501 80.4407C101.524 80.6925 101.634 80.9201 101.816 81.0944C101.993 81.2688 102.227 81.3753 102.47 81.3947H102.676C108.632 80.0775 109.765 75.0169 109.679 71.0605C109.683 70.7748 109.573 70.5085 109.378 70.3051Z" fill="#072A42"/>
<path d="M102.848 66.339C105.57 62.0436 107.964 46.4019 100.33 35.4722C97.0819 30.8378 92.3193 27.414 86.4247 25.3317C86.2623 25.138 86.1142 24.9443 85.9422 24.7603C83.2767 21.9128 79.6272 20.2082 75.7579 20H53.0725C49.1985 20.2082 45.5537 21.9128 42.8834 24.7651C38.097 29.8741 37.4521 37.4915 40.9297 43.2881C40.7482 43.8789 40.5619 44.4649 40.4042 45.0847C37.0891 58.0484 41.116 67.661 41.2832 68.0436C41.3596 68.2373 41.4934 68.4019 41.6653 68.5133C41.8421 68.6295 42.0379 68.6876 42.2433 68.678H42.4965C42.7306 68.6053 42.9312 68.46 43.0745 68.2615C43.2178 68.063 43.2943 67.8208 43.2895 67.5738C43.2895 67.4915 42.7879 58.4794 48.7829 52.0581C49.3657 51.4286 50.0058 50.8571 50.6745 50.3196C51.4579 50.4891 52.2509 50.615 53.063 50.6586H75.7484C78.3756 50.5182 80.8883 49.6707 83.0713 48.2615C89.9357 51.2784 92.9451 56.2663 95.7062 60.862C97.1344 63.2445 98.515 65.4964 100.278 67.2833C100.421 67.4431 100.612 67.5496 100.822 67.5787C101.548 67.6998 102.26 67.3172 102.848 66.339Z" fill="#072A42"/>
<path d="M83.1812 50.6537C82.9376 50.6537 82.7035 50.5714 82.5124 50.4165C82.3261 50.2615 82.1924 50.0484 82.1446 49.8063C82.0968 49.5642 82.1303 49.3172 82.2401 49.0993C82.35 48.8813 82.5363 48.7119 82.7608 48.615C87.6667 46.4019 87.7909 40.7942 87.7909 40.5375C87.7909 40.2567 87.9007 39.9855 88.0966 39.7869C88.2925 39.5884 88.56 39.477 88.837 39.477C89.1189 39.4867 89.3864 39.6126 89.5822 39.816C89.7781 40.0194 89.8879 40.2954 89.8879 40.5811C89.8879 40.8329 89.759 47.7675 83.6398 50.5278C83.5012 50.6053 83.3436 50.6489 83.1812 50.6537Z" fill="white"/>
</g>
</g>
<defs>
<filter id="filter0_d_9_17" x="0" y="0" width="142" height="145.79" filterUnits="userSpaceOnUse" color-interpolation-filters="sRGB">
<feFlood flood-opacity="0" result="BackgroundImageFix"/>
<feColorMatrix in="SourceAlpha" type="matrix" values="0 0 0 0 0 0 0 0 0 0 0 0 0 0 0 0 0 0 127 0" result="hardAlpha"/>
<feOffset dy="4"/>
<feGaussianBlur stdDeviation="2"/>
<feComposite in2="hardAlpha" operator="out"/>
<feColorMatrix type="matrix" values="0 0 0 0 0 0 0 0 0 0 0 0 0 0 0 0 0 0 0.25 0"/>
<feBlend mode="normal" in2="BackgroundImageFix" result="effect1_dropShadow_9_17"/>
<feBlend mode="normal" in="SourceGraphic" in2="effect1_dropShadow_9_17" result="shape"/>
</filter>
<clipPath id="clip0_9_17">
<rect width="1920" height="1080" fill="white" transform="translate(-511 -810)"/>
</clipPath>
<clipPath id="clip1_9_17">
<rect width="79" height="92" fill="white" transform="translate(36 20)"/>
</clipPath>
</defs>
</svg>
