<svg width="60" height="60" viewBox="0 0 60 60" fill="none" xmlns="http://www.w3.org/2000/svg">
<path d="M30 60C46.5685 60 60 46.5685 60 30C60 13.4315 46.5685 0 30 0C13.4315 0 0 13.4315 0 30C0 46.5685 13.4315 60 30 60Z" fill="#495BD2"/>
<path fill-rule="evenodd" clip-rule="evenodd" d="M23.5 15C23.5 14.4477 23.9477 14 24.5 14H38.5C39.0523 14 39.5 14.4477 39.5 15V44.5C39.5 45.0523 39.0523 45.5 38.5 45.5H24.5C23.9477 45.5 23.5 45.0523 23.5 44.5V36.5C23.5 35.9477 23.9477 35.5 24.5 35.5C25.0523 35.5 25.5 35.9477 25.5 36.5V43.5H37.5V16H25.5V22C25.5 22.5523 25.0523 23 24.5 23C23.9477 23 23.5 22.5523 23.5 22V15ZM21.6585 21.2474C22.0741 21.6111 22.1163 22.2429 21.7526 22.6585L16.2038 29H33C33.5523 29 34 29.4477 34 30C34 30.5523 33.5523 31 33 31H16.3012L21.7311 36.8177C22.1079 37.2214 22.0861 37.8542 21.6823 38.2311C21.2786 38.6079 20.6458 38.5861 20.2689 38.1823L13.2689 30.6823C12.9188 30.3071 12.9095 29.7277 13.2474 29.3415L20.2474 21.3415C20.6111 20.9259 21.2429 20.8837 21.6585 21.2474Z" fill="white"/>
</svg>
