<svg width="350" height="82" viewBox="0 0 350 82" fill="none" xmlns="http://www.w3.org/2000/svg">
<path d="M18.1404 64.5118H5.30492V29.4551H0V18.5915H5.30492C5.73232 6.2828 12.6626 0 24.0431 0C25.9493 0.0311531 27.845 0.287945 29.6902 0.764975L29.0083 11.0368C27.4528 10.5939 25.8267 10.4499 24.2171 10.6124C18.4848 11.2054 18.1426 15.4501 18.1426 18.5904H26.6142V29.454H18.1426L18.1404 64.5118Z" fill="#5D6FE6"/>
<path d="M42.0961 81.9977L50.2245 62.8155L30.0313 17.994H44.8344L56.7274 47.7049L67.6805 17.994H82.4814L56.2148 81.9977H42.0961Z" fill="#5D6FE6"/>
<path d="M101.904 43.8845V64.5118H89.1539V17.8254H101.903V24.021C106.696 17.7405 114.653 16.8918 117.989 16.9755V29.3691C114.909 29.1156 101.904 29.7086 101.904 43.8845Z" fill="#5D6FE6"/>
<path d="M200.644 36.9239V64.5118H187.722V36.9239C187.722 29.7086 183.531 27.5019 178.568 27.5019C175.059 27.5019 169.668 29.6237 169.582 38.5364V64.5118H156.665V36.9239C156.665 29.7086 152.385 27.5019 147.594 27.5019C143.659 27.5019 138.524 29.6237 138.524 39.8106L138.438 64.5118H125.692V17.8254H138.438V22.0701C141.689 19.1845 146.995 16.9778 150.847 16.9778C158.034 16.9778 162.74 19.3542 165.993 23.3443C167.918 21.2735 170.264 19.6346 172.875 18.5369C175.486 17.4391 178.301 16.9076 181.135 16.9778C194.652 16.9755 200.644 24.7849 200.644 36.9239Z" fill="#5D6FE6"/>
<path d="M249.581 59.8473C247.611 62.4783 241.966 65.5348 235.292 65.5348C220.402 65.5348 211.679 54.5841 211.679 41.1731C211.679 27.7622 220.406 16.8103 235.292 16.8103C242.137 16.8103 247.186 19.5262 249.581 22.6665V17.8288H262.24V64.5152H249.576L249.581 59.8473ZM237.176 27.9354C229.045 27.9354 224.254 33.538 224.254 41.1754C224.254 48.5593 229.303 54.3306 237.176 54.3306C245.133 54.3306 250.095 49.322 250.095 41.1754C250.095 33.4441 245.133 27.9252 237.176 27.9252V27.9354Z" fill="#5D6FE6"/>
<path d="M274.99 0.339478H287.825V64.5118H274.99V0.339478Z" fill="#5D6FE6"/>
<path d="M297.836 41.2535C297.836 27.9252 309.301 16.9755 323.333 16.9755C337.366 16.9755 349.002 27.9263 349.002 41.2535C349.002 54.7504 337.368 65.6152 323.333 65.6152C309.298 65.6152 297.836 54.7504 297.836 41.2535ZM310.414 41.2535C310.414 48.9768 315.974 54.5795 323.333 54.5795C330.608 54.5795 336.254 48.8082 336.254 41.2535C336.29 39.5416 335.983 37.8398 335.349 36.2478C334.716 34.6558 333.77 33.2057 332.567 31.9823C331.364 30.7589 329.927 29.787 328.342 29.1235C326.756 28.46 325.054 28.1182 323.334 28.1182C321.614 28.1182 319.912 28.46 318.326 29.1235C316.741 29.787 315.304 30.7589 314.101 31.9823C312.898 33.2057 311.952 34.6558 311.319 36.2478C310.685 37.8398 310.378 39.5416 310.414 41.2535Z" fill="#5D6FE6"/>
</svg>
