<svg width="49" height="52" viewBox="0 0 49 52" fill="none" xmlns="http://www.w3.org/2000/svg">
<path d="M2.933 29.3289H21.163V48.8589C21.1559 49.2423 21.2252 49.6234 21.367 49.9797C21.5088 50.3361 21.7202 50.6605 21.9889 50.9342C22.2575 51.2079 22.578 51.4253 22.9317 51.5737C23.2853 51.7221 23.665 51.7986 24.0485 51.7986C24.432 51.7986 24.8117 51.7221 25.1653 51.5737C25.519 51.4253 25.8395 51.2079 26.1081 50.9342C26.3768 50.6605 26.5882 50.3361 26.73 49.9797C26.8718 49.6234 26.9411 49.2423 26.934 48.8589V29.3289H45.162C45.9399 29.3289 46.6859 29.0199 47.2359 28.4698C47.786 27.9198 48.095 27.1738 48.095 26.3959C48.095 25.618 47.786 24.8719 47.2359 24.3219C46.6859 23.7719 45.9399 23.4629 45.162 23.4629H26.933V3.93286C26.9401 3.54941 26.8708 3.16835 26.729 2.81201C26.5872 2.45567 26.3758 2.13124 26.1071 1.85754C25.8385 1.58385 25.518 1.36643 25.1643 1.21802C24.8107 1.06961 24.431 0.993164 24.0475 0.993164C23.664 0.993164 23.2843 1.06961 22.9307 1.21802C22.577 1.36643 22.2565 1.58385 21.9879 1.85754C21.7192 2.13124 21.5078 2.45567 21.366 2.81201C21.2242 3.16835 21.1549 3.54941 21.162 3.93286V23.4629H2.933C2.15512 23.4629 1.4091 23.7719 0.859055 24.3219C0.30901 24.8719 0 25.618 0 26.3959C0 27.1738 0.30901 27.9198 0.859055 28.4698C1.4091 29.0199 2.15512 29.3289 2.933 29.3289V29.3289Z" fill="white"/>
</svg>
