<svg width="39" height="51" viewBox="0 0 39 51" fill="none" xmlns="http://www.w3.org/2000/svg">
<path d="M35.154 0.118005C34.9793 0.0786688 34.7985 0.0743685 34.6221 0.105554C34.4457 0.136739 34.2773 0.202776 34.1267 0.299646C33.976 0.396516 33.8461 0.522356 33.7446 0.669885C33.643 0.817414 33.5718 0.983715 33.535 1.15902C33.4521 1.51393 33.5118 1.8872 33.7012 2.19857C33.8906 2.50994 34.1947 2.73446 34.548 2.82394C34.7985 2.88276 35.0317 2.99933 35.2291 3.16427C35.4265 3.32921 35.5826 3.53803 35.685 3.77401C35.7892 4.01468 35.9611 4.21979 36.1799 4.36434C36.3987 4.5089 36.6548 4.58661 36.917 4.58798C37.1092 4.58806 37.2991 4.54569 37.473 4.46395C37.8029 4.30625 38.0579 4.02585 38.1837 3.68258C38.3094 3.33931 38.2959 2.96036 38.146 2.62692C37.8774 2.00443 37.467 1.45342 36.9475 1.01779C36.428 0.582153 35.8138 0.274058 35.154 0.118005Z" fill="white"/>
<path d="M18.291 0.000976562H15.529C15.1674 0.0106834 14.824 0.161018 14.5717 0.420166C14.3194 0.679314 14.1782 1.02676 14.1782 1.38843C14.1782 1.7501 14.3194 2.09754 14.5717 2.35669C14.824 2.61584 15.1674 2.76617 15.529 2.77588H18.291C18.6525 2.76617 18.996 2.61584 19.2483 2.35669C19.5005 2.09754 19.6417 1.7501 19.6417 1.38843C19.6417 1.02676 19.5005 0.679314 19.2483 0.420166C18.996 0.161018 18.6525 0.0106834 18.291 0.000976562Z" fill="white"/>
<path d="M27.956 0.000976562H25.196C24.8344 0.0106834 24.491 0.161018 24.2387 0.420166C23.9864 0.679314 23.8452 1.02676 23.8452 1.38843C23.8452 1.7501 23.9864 2.09754 24.2387 2.35669C24.491 2.61584 24.8344 2.76617 25.196 2.77588H27.956C28.3175 2.76617 28.661 2.61584 28.9133 2.35669C29.1655 2.09754 29.3067 1.7501 29.3067 1.38843C29.3067 1.02676 29.1655 0.679314 28.9133 0.420166C28.661 0.161018 28.3175 0.0106834 27.956 0.000976562Z" fill="white"/>
<path d="M37.189 8.86584C36.8261 8.87085 36.48 9.01982 36.2269 9.27991C35.9737 9.54 35.8342 9.89001 35.839 10.2529V13.0898C35.832 13.2715 35.8618 13.4528 35.9265 13.6227C35.9911 13.7926 36.0895 13.9476 36.2155 14.0786C36.3416 14.2096 36.4928 14.3138 36.66 14.385C36.8273 14.4562 37.0072 14.4929 37.189 14.4929C37.3708 14.4929 37.5507 14.4562 37.718 14.385C37.8853 14.3138 38.0365 14.2096 38.1625 14.0786C38.2886 13.9476 38.3869 13.7926 38.4516 13.6227C38.5163 13.4528 38.546 13.2715 38.539 13.0898V10.2499C38.5433 9.8874 38.4035 9.53806 38.1504 9.27856C37.8973 9.01907 37.5515 8.87059 37.189 8.86584Z" fill="white"/>
<path d="M11.848 1.38798C11.8501 1.1163 11.7723 0.85001 11.6241 0.622236C11.476 0.394463 11.2642 0.215256 11.015 0.106977C10.7683 0.000971638 10.4951 -0.0270857 10.232 0.0265331C9.96894 0.080152 9.72852 0.212934 9.543 0.407026L0.397 9.80705C0.28591 9.92531 0.196843 10.0624 0.133999 10.212C0.116191 10.2539 0.101158 10.297 0.0889994 10.341C0.0488866 10.4579 0.0246692 10.5797 0.0169989 10.703C0.0169989 10.732 0.00100005 10.759 0.00100005 10.788V12.174C-0.0059932 12.3557 0.0237474 12.5368 0.0884405 12.7067C0.153134 12.8766 0.251448 13.0318 0.377497 13.1628C0.503546 13.2938 0.654735 13.3979 0.822011 13.469C0.989287 13.5402 1.16921 13.5769 1.351 13.5769C1.53279 13.5769 1.71271 13.5402 1.87999 13.469C2.04726 13.3979 2.19845 13.2938 2.3245 13.1628C2.45055 13.0318 2.54887 12.8766 2.61356 12.7067C2.67825 12.5368 2.70799 12.3557 2.701 12.174H6.629C7.32568 12.1719 8.01495 12.0308 8.6564 11.759C9.29785 11.4871 9.87858 11.0899 10.3646 10.5907C10.8505 10.0915 11.232 9.50037 11.4865 8.85185C11.7411 8.20333 11.8636 7.5105 11.847 6.81401L11.848 1.38798ZM6.63 9.39702H4.611L8.041 5.87297C8.09019 5.84331 8.13699 5.8099 8.181 5.77299L9.147 4.78898V6.80803C9.15566 7.14432 9.09701 7.47897 8.9745 7.79228C8.85198 8.10559 8.66806 8.39116 8.43356 8.63237C8.19906 8.87358 7.91871 9.06552 7.60898 9.19682C7.29926 9.32813 6.96641 9.3962 6.63 9.39702Z" fill="white"/>
<path d="M2.70198 19.2659C2.70897 19.0842 2.67923 18.903 2.61454 18.7332C2.54984 18.5633 2.45153 18.4082 2.32548 18.2772C2.19943 18.1462 2.04824 18.042 1.88096 17.9708C1.71369 17.8996 1.53377 17.8629 1.35198 17.8629C1.17019 17.8629 0.990265 17.8996 0.822989 17.9708C0.655713 18.042 0.504523 18.1462 0.378474 18.2772C0.252425 18.4082 0.15411 18.5633 0.0894171 18.7332C0.0247239 18.903 -0.00501663 19.0842 0.00197662 19.2659V22.1029C-0.00501663 22.2846 0.0247239 22.4657 0.0894171 22.6356C0.15411 22.8055 0.252425 22.9606 0.378474 23.0916C0.504523 23.2225 0.655713 23.3268 0.822989 23.3979C0.990265 23.4691 1.17019 23.5059 1.35198 23.5059C1.53377 23.5059 1.71369 23.4691 1.88096 23.3979C2.04824 23.3268 2.19943 23.2225 2.32548 23.0916C2.45153 22.9606 2.54984 22.8055 2.61454 22.6356C2.67923 22.4657 2.70897 22.2846 2.70198 22.1029V19.2659Z" fill="white"/>
<path d="M37.189 28.725C36.8261 28.73 36.48 28.8788 36.2269 29.1389C35.9737 29.399 35.8342 29.749 35.839 30.1119V32.9459C35.832 33.1276 35.8618 33.3087 35.9265 33.4786C35.9911 33.6485 36.0895 33.8037 36.2155 33.9347C36.3416 34.0657 36.4928 34.1699 36.66 34.2411C36.8273 34.3123 37.0072 34.3489 37.189 34.3489C37.3708 34.3489 37.5507 34.3123 37.718 34.2411C37.8853 34.1699 38.0365 34.0657 38.1625 33.9347C38.2886 33.8037 38.3869 33.6485 38.4516 33.4786C38.5163 33.3087 38.546 33.1276 38.539 32.9459V30.1119C38.5415 29.9322 38.5086 29.7538 38.4421 29.5868C38.3756 29.4198 38.2768 29.2675 38.1515 29.1387C38.0261 29.0099 37.8765 28.907 37.7114 28.8361C37.5463 28.7651 37.3688 28.7273 37.189 28.725Z" fill="white"/>
<path d="M37.189 18.7939C36.8262 18.7992 36.4803 18.9482 36.2272 19.2083C35.9741 19.4683 35.8345 19.8182 35.839 20.181V23.0179C35.832 23.1996 35.8618 23.3809 35.9265 23.5508C35.9911 23.7207 36.0895 23.8757 36.2155 24.0067C36.3416 24.1377 36.4928 24.2419 36.66 24.3131C36.8273 24.3843 37.0072 24.421 37.189 24.421C37.3708 24.421 37.5507 24.3843 37.718 24.3131C37.8853 24.2419 38.0365 24.1377 38.1625 24.0067C38.2886 23.8757 38.3869 23.7207 38.4516 23.5508C38.5163 23.3809 38.546 23.1996 38.539 23.0179V20.181C38.5438 19.8181 38.4043 19.4681 38.1512 19.208C37.898 18.9479 37.5519 18.799 37.189 18.7939Z" fill="white"/>
<path d="M1.351 27.804C0.988166 27.8092 0.642246 27.9582 0.389149 28.2183C0.136053 28.4783 -0.00354097 28.8282 0.00100005 29.191V32.028C-0.0059932 32.2096 0.0237474 32.3909 0.0884405 32.5608C0.153134 32.7307 0.251448 32.8857 0.377497 33.0167C0.503546 33.1477 0.654735 33.2519 0.822011 33.3231C0.989287 33.3943 1.16921 33.4309 1.351 33.4309C1.53279 33.4309 1.71271 33.3943 1.87999 33.3231C2.04726 33.2519 2.19845 33.1477 2.3245 33.0167C2.45055 32.8857 2.54887 32.7307 2.61356 32.5608C2.67825 32.3909 2.70799 32.2096 2.701 32.028V29.191C2.70581 28.8281 2.5663 28.4781 2.31315 28.218C2.05999 27.9579 1.71392 27.809 1.351 27.804Z" fill="white"/>
<path d="M37.189 38.6539C36.8261 38.6589 36.48 38.8078 36.2269 39.0679C35.9737 39.328 35.8342 39.678 35.839 40.0409V42.8779C35.832 43.0596 35.8618 43.2408 35.9265 43.4106C35.9911 43.5805 36.0895 43.7356 36.2155 43.8666C36.3416 43.9976 36.4928 44.1018 36.66 44.173C36.8273 44.2442 37.0072 44.2809 37.189 44.2809C37.3708 44.2809 37.5507 44.2442 37.718 44.173C37.8853 44.1018 38.0365 43.9976 38.1625 43.8666C38.2886 43.7356 38.3869 43.5805 38.4516 43.4106C38.5163 43.2408 38.546 43.0596 38.539 42.8779V40.0409C38.5415 39.8612 38.5086 39.6827 38.4421 39.5157C38.3756 39.3487 38.2768 39.1964 38.1515 39.0676C38.0261 38.9388 37.8765 38.836 37.7114 38.765C37.5463 38.694 37.3688 38.6563 37.189 38.6539Z" fill="white"/>
<path d="M2.70198 41.96V39.1229C2.70897 38.9413 2.67923 38.7601 2.61454 38.5902C2.54984 38.4203 2.45153 38.2653 2.32548 38.1343C2.19943 38.0033 2.04824 37.8991 1.88096 37.8279C1.71369 37.7567 1.53377 37.72 1.35198 37.72C1.17019 37.72 0.990265 37.7567 0.822989 37.8279C0.655713 37.8991 0.504523 38.0033 0.378474 38.1343C0.252425 38.2653 0.15411 38.4203 0.0894171 38.5902C0.0247239 38.7601 -0.00501663 38.9413 0.00197662 39.1229V41.96C-0.00501663 42.1416 0.0247239 42.3228 0.0894171 42.4927C0.15411 42.6626 0.252425 42.8176 0.378474 42.9486C0.504523 43.0796 0.655713 43.1838 0.822989 43.255C0.990265 43.3262 1.17019 43.3629 1.35198 43.3629C1.53377 43.3629 1.71369 43.3262 1.88096 43.255C2.04824 43.1838 2.19943 43.0796 2.32548 42.9486C2.45153 42.8176 2.54984 42.6626 2.61454 42.4927C2.67923 42.3228 2.70897 42.1416 2.70198 41.96Z" fill="white"/>
<path d="M34.4649 47.334C34.3584 47.3537 34.2503 47.3634 34.1419 47.3631H31.9469C31.5854 47.3728 31.2419 47.5232 30.9896 47.7824C30.7374 48.0415 30.5962 48.3888 30.5962 48.7505C30.5962 49.1122 30.7374 49.4596 30.9896 49.7188C31.2419 49.9779 31.5854 50.1284 31.9469 50.1381H34.1409C34.4093 50.1384 34.6771 50.114 34.9409 50.0651C35.2979 49.9928 35.612 49.783 35.8156 49.481C36.0192 49.179 36.0958 48.8091 36.0289 48.4511C36.0005 48.2746 35.9373 48.1055 35.8431 47.9536C35.7488 47.8018 35.6254 47.6701 35.48 47.5662C35.3345 47.4623 35.1699 47.3884 34.9957 47.3485C34.8215 47.3087 34.6411 47.3037 34.4649 47.334Z" fill="white"/>
<path d="M5.71603 47.364H4.40502C4.13441 47.3604 3.86863 47.2918 3.63002 47.1641C3.47165 47.0814 3.29829 47.0312 3.1202 47.0166C2.94211 47.0021 2.76292 47.0234 2.59323 47.0794C2.42353 47.1353 2.26678 47.2247 2.13226 47.3423C1.99773 47.4599 1.88816 47.6034 1.81002 47.7641C1.64529 48.0902 1.6138 48.4676 1.72222 48.8166C1.83063 49.1655 2.07046 49.4587 2.39102 49.6341C3.01052 49.9629 3.70067 50.1362 4.40203 50.1391H5.71702C6.07856 50.1294 6.42204 49.9789 6.67432 49.7198C6.9266 49.4606 7.06777 49.1132 7.06777 48.7515C7.06777 48.3898 6.9266 48.0425 6.67432 47.7834C6.42204 47.5242 6.07756 47.3738 5.71603 47.364Z" fill="white"/>
<path d="M25.044 47.3639H22.282C21.9205 47.3736 21.577 47.5241 21.3247 47.7832C21.0724 48.0424 20.9313 48.3897 20.9313 48.7513C20.9313 49.113 21.0724 49.4605 21.3247 49.7196C21.577 49.9788 21.9205 50.1292 22.282 50.1389H25.044C25.4056 50.1292 25.749 49.9788 26.0013 49.7196C26.2536 49.4605 26.3948 49.113 26.3948 48.7513C26.3948 48.3897 26.2536 48.0424 26.0013 47.7832C25.749 47.5241 25.4056 47.3736 25.044 47.3639Z" fill="white"/>
<path d="M15.3811 47.3639H12.6191C12.2575 47.3736 11.914 47.5241 11.6618 47.7832C11.4095 48.0424 11.2683 48.3897 11.2683 48.7513C11.2683 49.113 11.4095 49.4605 11.6618 49.7196C11.914 49.9788 12.2575 50.1292 12.6191 50.1389H15.3811C15.7426 50.1292 16.0861 49.9788 16.3384 49.7196C16.5906 49.4605 16.7318 49.113 16.7318 48.7513C16.7318 48.3897 16.5906 48.0424 16.3384 47.7832C16.0861 47.5241 15.7426 47.3736 15.3811 47.3639Z" fill="white"/>
</svg>
