<svg width="217" height="74" viewBox="0 0 217 74" fill="none" xmlns="http://www.w3.org/2000/svg">
<path d="M186 60C202.569 60 216 46.5685 216 30C216 13.4315 202.569 0 186 0C169.431 0 156 13.4315 156 30C156 46.5685 169.431 60 186 60Z" fill="#495BD2"/>
<path d="M183.035 29.3058C184.562 29.9657 186.258 30.131 187.883 29.7785C189.425 29.4338 190.826 28.6293 191.901 27.4714C192.976 26.3135 193.675 24.8566 193.904 23.2933C193.966 22.8712 193.994 22.445 193.99 22.0185C193.962 20.4123 193.44 18.8536 192.495 17.5546C191.54 16.2615 190.219 15.2856 188.702 14.7543C187.185 14.2348 185.545 14.1953 184.005 14.6412C182.465 15.0871 181.099 15.9967 180.095 17.2463C179.074 18.5235 178.472 20.0842 178.37 21.7159C178.28 23.3054 178.678 24.8846 179.511 26.2413C180.344 27.5981 181.572 28.6675 183.031 29.3059L183.035 29.3058ZM179.68 21.6706C179.685 21.5795 179.693 21.4923 179.701 21.4012L179.701 21.3932C179.706 21.3491 179.712 21.308 179.718 21.2638C179.747 21.0753 179.779 20.8867 179.825 20.6998C179.904 20.364 180.006 20.0341 180.131 19.7124L180.137 19.7013C180.152 19.662 180.17 19.6227 180.187 19.5834C180.22 19.5048 180.258 19.4261 180.296 19.3505C180.378 19.184 180.467 19.0194 180.557 18.8589C180.648 18.6983 180.733 18.5668 180.832 18.4261C180.872 18.3518 180.922 18.2835 180.981 18.2235C181.016 18.1769 181.051 18.1343 181.086 18.0917C181.3 17.828 181.533 17.5797 181.783 17.3486C181.847 17.2925 181.908 17.2334 181.972 17.1803C182.004 17.1538 182.036 17.1232 182.071 17.0976C182.131 17.0393 182.197 16.9873 182.268 16.9422C182.348 16.8819 182.429 16.8255 182.512 16.769C182.808 16.569 183.119 16.3922 183.442 16.2401C183.477 16.2161 183.516 16.1979 183.558 16.1861C183.532 16.1955 183.506 16.209 183.484 16.2194C183.51 16.2089 183.536 16.1955 183.565 16.186L183.763 16.1046C183.938 16.0366 184.118 15.9745 184.3 15.9194C184.481 15.8643 184.639 15.8266 184.81 15.7877C184.898 15.7702 184.986 15.7527 185.07 15.7343L185.202 15.713C185.274 15.7018 185.261 15.702 185.163 15.7197L185.251 15.7092C185.626 15.6598 186.005 15.6403 186.383 15.6509C186.556 15.654 186.728 15.6671 186.901 15.6842L186.907 15.6841C186.943 15.6834 186.983 15.6938 187.018 15.6982C187.118 15.7125 187.223 15.7307 187.324 15.748C187.682 15.8142 188.034 15.9085 188.378 16.0302C188.456 16.0568 188.534 16.0865 188.608 16.1163L188.623 16.123C188.662 16.1393 188.702 16.1577 188.741 16.173C188.911 16.2481 189.078 16.3303 189.245 16.4185C189.413 16.5067 189.548 16.5854 189.688 16.6771C189.746 16.7151 189.806 16.7531 189.865 16.7941C189.953 16.8397 190.035 16.8972 190.108 16.965C190.14 16.9905 190.174 17.0159 190.209 17.0443C190.274 17.0982 190.34 17.1521 190.403 17.2071C190.541 17.3278 190.677 17.4525 190.81 17.5833C190.942 17.7141 191.045 17.8294 191.157 17.9575C191.184 17.989 191.213 18.0215 191.24 18.0561C191.31 18.1267 191.371 18.2068 191.42 18.2941C191.621 18.5709 191.802 18.862 191.961 19.1651L192.079 19.3932C192.098 19.4319 192.115 19.4706 192.133 19.5093L192.142 19.5312C192.211 19.6991 192.28 19.8669 192.336 20.039C192.454 20.3859 192.545 20.7416 192.608 21.1027C192.62 21.146 192.627 21.1905 192.63 21.2354C192.642 21.3262 192.652 21.4141 192.661 21.5049C192.664 21.6829 192.677 21.8648 192.683 22.0467C192.689 22.2287 192.683 22.4108 192.672 22.5931C192.667 22.6842 192.658 22.7713 192.652 22.8625C192.65 22.9216 192.642 22.9804 192.629 23.0379C192.576 23.4001 192.495 23.7576 192.387 24.1073C192.336 24.2703 192.277 24.4303 192.22 24.5873L192.213 24.6004C192.198 24.6397 192.179 24.6791 192.163 24.7183C192.123 24.8101 192.082 24.9018 192.035 24.9906C191.884 25.2976 191.711 25.5934 191.518 25.8756C191.478 25.95 191.428 26.0182 191.369 26.0782C191.344 26.1116 191.317 26.1441 191.289 26.1796C191.175 26.3243 191.054 26.4629 190.926 26.5949C190.811 26.7199 190.69 26.839 190.565 26.9551C190.501 27.0112 190.441 27.0703 190.377 27.1234C190.344 27.1499 190.313 27.1805 190.278 27.2071C190.243 27.2337 190.234 27.2429 190.211 27.2592L190.239 27.2367C189.971 27.4461 189.687 27.6364 189.392 27.8063C189.244 27.8938 189.095 27.9704 188.938 28.0481C188.899 28.0678 188.861 28.0854 188.822 28.1021L188.793 28.1156C188.708 28.152 188.623 28.1865 188.538 28.22C188.197 28.3485 187.847 28.4521 187.491 28.5298C187.404 28.5473 187.316 28.5648 187.228 28.5793L187.141 28.5938L187.135 28.5939C186.935 28.6173 186.746 28.6395 186.551 28.6498C186.174 28.667 185.796 28.6581 185.421 28.6231L185.413 28.6232L185.283 28.6064C185.196 28.5949 185.108 28.5793 185.022 28.5618C184.836 28.5263 184.651 28.4841 184.465 28.4352C184.299 28.389 184.132 28.3409 183.962 28.2807L183.761 28.2061C183.748 28.2004 183.735 28.1976 183.722 28.1908C183.656 28.1659 183.67 28.1687 183.758 28.2062C183.702 28.1926 183.649 28.1695 183.601 28.1378C183.274 27.9949 182.959 27.8263 182.658 27.6337C182.585 27.5899 182.513 27.5422 182.444 27.4943C182.369 27.4555 182.3 27.4053 182.241 27.3457C182.208 27.3203 182.175 27.2948 182.14 27.2654C182.065 27.2017 181.985 27.138 181.912 27.0752C181.658 26.8514 181.42 26.6101 181.2 26.3531C181.173 26.3206 181.144 26.2891 181.116 26.2545C181.057 26.1928 181.005 26.1249 180.961 26.0521C180.851 25.9049 180.748 25.7556 180.653 25.5932C180.558 25.4308 180.476 25.3011 180.398 25.1464C180.358 25.0691 180.32 24.9947 180.28 24.9173C180.26 24.8783 180.242 24.8396 180.226 24.8012L180.215 24.7774L180.206 24.7565C180.07 24.4357 179.958 24.1053 179.87 23.768C179.825 23.5967 179.787 23.4253 179.761 23.2507C179.753 23.2058 179.746 23.1659 179.739 23.122L179.739 23.114C179.728 23.0142 179.713 22.9064 179.705 22.8025C179.668 22.4264 179.659 22.048 179.68 21.6706Z" fill="white"/>
<path d="M199.366 38.873C199.285 36.997 198.565 35.2052 197.325 33.7952C196.124 32.4306 194.498 31.5098 192.71 31.1809C191.854 31.0571 190.987 31.0176 190.123 31.0628L183.149 31.1814C182.529 31.1919 181.909 31.1855 181.29 31.219C179.417 31.3227 177.635 32.061 176.238 33.3124C174.886 34.5289 173.982 36.1651 173.673 37.9574C173.538 39.1081 173.509 40.2688 173.586 41.4249L173.613 43.0189C173.613 43.1611 173.62 43.3032 173.636 43.4446C173.701 43.9995 173.974 44.5092 174.401 44.87C174.831 45.2221 175.374 45.4078 175.93 45.3932L197.261 45.0305C197.27 45.029 197.28 45.0268 197.289 45.0241C197.844 45.0012 198.371 44.7726 198.767 44.3828C199.163 43.993 199.399 43.4698 199.431 42.9151C199.455 42.5576 199.425 42.1909 199.419 41.8339C199.403 40.8469 199.41 39.8595 199.366 38.873ZM174.983 43.5337L175.01 43.5873C175.002 43.5884 174.993 43.5656 174.983 43.5337ZM175.279 43.9168C175.295 43.9265 175.31 43.9373 175.309 43.9403C175.298 43.9336 175.288 43.9257 175.279 43.9168ZM175.669 44.0863C175.669 44.0863 175.68 44.0861 175.696 44.0858L175.669 44.0863ZM197.351 43.7267C197.371 43.7211 197.392 43.7177 197.413 43.7166C197.414 43.7226 197.385 43.7251 197.351 43.7267ZM198.063 43.1954C198.063 43.1954 198.07 43.1743 198.08 43.1541C198.073 43.1772 198.066 43.1973 198.058 43.1955L198.063 43.1954ZM198.134 42.7941L198.135 42.8531C198.135 42.8611 198.136 42.8871 198.136 42.9141C198.137 42.9411 198.12 43.0144 198.116 43.0284C198.112 43.0425 198.101 43.0877 198.089 43.1289C198.08 43.1451 198.071 43.1683 198.061 43.1874C198.036 43.2369 198.008 43.2884 197.979 43.3359L197.965 43.3571C197.93 43.3897 197.902 43.4312 197.867 43.4638C197.851 43.4801 197.835 43.4934 197.822 43.5066C197.809 43.5198 197.812 43.5167 197.806 43.5199L197.792 43.5331C197.774 43.5472 197.755 43.5595 197.735 43.5701C197.694 43.5968 197.652 43.6205 197.607 43.6443L197.594 43.6525C197.589 43.6526 197.594 43.6525 197.584 43.6527C197.536 43.6665 197.49 43.6843 197.438 43.6982C197.416 43.7045 197.397 43.7079 197.374 43.7123L197.348 43.7187C197.306 43.7194 197.258 43.7202 197.248 43.7204L175.848 44.0842C175.818 44.0847 175.786 44.0852 175.757 44.0857L175.716 44.0864L175.711 44.0865C175.655 44.0744 175.596 44.0625 175.541 44.0464C175.525 44.0405 175.508 44.0358 175.492 44.0322C175.455 44.0128 175.419 43.9955 175.384 43.9781C175.348 43.9606 175.306 43.9274 175.265 43.903L175.23 43.8696C175.194 43.8365 175.16 43.8013 175.128 43.7643L175.12 43.7485C175.093 43.7069 175.066 43.6684 175.04 43.6228C175.026 43.597 175.013 43.5712 174.999 43.5485L174.988 43.5276C174.974 43.4809 174.96 43.4161 174.949 43.3653C174.949 43.3653 174.939 43.3654 174.939 43.3384L174.938 43.3144L174.938 43.2964C174.938 43.3054 174.938 43.3064 174.938 43.3134C174.939 43.2914 174.939 43.2694 174.937 43.2474L174.874 39.5004C174.868 39.1724 174.914 38.8505 174.916 38.5254C174.916 38.5254 174.898 38.6618 174.907 38.5876C174.906 38.5576 174.916 38.5284 174.919 38.4994C174.924 38.4473 174.933 38.3991 174.942 38.3459C174.959 38.2356 174.977 38.1283 175.001 38.0208C175.043 37.8121 175.094 37.6061 175.153 37.4041C175.212 37.202 175.286 36.9927 175.364 36.7893L175.371 36.7712C175.39 36.7248 175.412 36.6795 175.429 36.6332C175.473 36.5324 175.525 36.4315 175.567 36.3417C175.758 35.9669 175.977 35.607 176.222 35.2653L176.237 35.249C176.268 35.2095 176.296 35.17 176.329 35.1304C176.395 35.0483 176.462 34.9651 176.533 34.8869C176.673 34.7245 176.819 34.5729 176.973 34.4243C177.126 34.2756 177.276 34.146 177.433 34.0163L177.449 34.0031C177.487 33.9734 177.529 33.9437 177.567 33.913C177.657 33.8465 177.75 33.7799 177.847 33.7172C178.191 33.4867 178.553 33.283 178.928 33.1077L178.936 33.1075L178.95 33.1013C178.996 33.0815 179.044 33.0607 179.088 33.0439C179.194 33.0001 179.305 32.9592 179.414 32.9213C179.613 32.8529 179.812 32.7915 180.021 32.739C180.23 32.6864 180.439 32.6409 180.65 32.6043L180.669 32.6039L180.675 32.6038C180.727 32.597 180.775 32.5891 180.831 32.5852C180.952 32.5701 181.071 32.5581 181.191 32.55C181.438 32.5328 181.691 32.5316 181.934 32.5274L191.105 32.3715C191.426 32.3661 191.746 32.4126 192.064 32.4132C192.064 32.4132 191.927 32.3965 192.002 32.4053C192.03 32.4048 192.059 32.4133 192.09 32.4168C192.142 32.4219 192.19 32.4311 192.243 32.4402C192.354 32.4573 192.461 32.4755 192.569 32.4997C192.777 32.5411 192.982 32.5927 193.185 32.6512C193.388 32.7098 193.597 32.7843 193.799 32.8619L193.805 32.8618L193.822 32.8685C193.868 32.8877 193.914 32.9099 193.959 32.9281C194.06 32.9724 194.161 33.0188 194.251 33.0662C194.626 33.2564 194.986 33.475 195.327 33.7201L195.345 33.7339C195.385 33.7662 195.424 33.7945 195.463 33.8319C195.545 33.8985 195.627 33.9651 195.707 34.0348C195.868 34.1751 196.021 34.3225 196.169 34.4761C196.318 34.6296 196.447 34.7794 196.577 34.9362L196.59 34.951L196.591 34.956L196.68 35.0746C196.746 35.1644 196.813 35.2573 196.876 35.3533C197.106 35.6979 197.31 36.0592 197.486 36.4342L197.486 36.4422L197.486 36.4572C197.508 36.5029 197.529 36.5506 197.545 36.5963C197.589 36.7026 197.629 36.8119 197.667 36.9223C197.736 37.1212 197.797 37.3202 197.85 37.5294C197.902 37.7385 197.948 37.9468 197.983 38.1573L197.984 38.1773L197.984 38.1833C197.992 38.2352 197.998 38.2831 198.003 38.339C198.018 38.4588 198.03 38.5786 198.039 38.6995C198.064 39.0822 198.062 39.4653 198.068 39.8483C198.101 40.8171 198.127 41.8079 198.134 42.7981L198.134 42.7941Z" fill="white"/>
<path d="M174.93 43.3136C174.931 43.3266 174.939 43.3404 174.944 43.3643C174.955 43.3671 174.946 43.3503 174.93 43.3136Z" fill="white"/>
</svg>
