<svg width="54" height="38" viewBox="0 0 54 38" fill="none" xmlns="http://www.w3.org/2000/svg">
<path d="M48.628 0.00185002H5.248C3.90095 -0.0343711 2.59405 0.462509 1.61135 1.38454C0.62865 2.30657 0.0495779 3.5793 0 4.92592C0.0217895 5.85175 0.307002 6.75221 0.822214 7.52175C1.33743 8.29129 2.0613 8.89802 2.909 9.27089V29.6128C2.93589 31.5995 3.74864 33.4947 5.1694 34.8836C6.59016 36.2725 8.50323 37.042 10.49 37.0238H43.39C45.3765 37.0412 47.2892 36.2714 48.7097 34.8827C50.1303 33.494 50.9433 31.5992 50.971 29.6128V9.26491C51.8161 8.89169 52.5375 8.2857 53.0511 7.51772C53.5646 6.74974 53.849 5.85146 53.871 4.92788C53.8224 3.58161 53.2445 2.30892 52.2627 1.38649C51.2809 0.464067 49.9747 -0.0335468 48.628 0.00185002ZM47.998 29.6109C47.9958 30.2105 47.8745 30.8038 47.641 31.3561C47.4076 31.9084 47.0666 32.4088 46.638 32.8281C46.2095 33.2475 45.7018 33.5774 45.1445 33.7988C44.5872 34.0203 43.9915 34.1287 43.392 34.1178H10.492C9.89257 34.1294 9.29684 34.0214 8.73961 33.8002C8.18239 33.5789 7.67482 33.2488 7.24658 32.8292C6.81833 32.4097 6.47798 31.9089 6.2454 31.3563C6.01283 30.8037 5.89269 30.2104 5.892 29.6109V10.0608H47.997L47.998 29.6109ZM48.628 6.9479H5.248C4.96262 6.98154 4.67336 6.95438 4.39924 6.86818C4.12512 6.78198 3.87237 6.63869 3.65762 6.44777C3.44286 6.25685 3.27097 6.02253 3.15327 5.7604C3.03556 5.49826 2.97471 5.21425 2.97471 4.9269C2.97471 4.63955 3.03556 4.35542 3.15327 4.09328C3.27097 3.83114 3.44286 3.59695 3.65762 3.40602C3.87237 3.2151 4.12512 3.07182 4.39924 2.98561C4.67336 2.89941 4.96262 2.87225 5.248 2.9059H48.628C48.9134 2.87225 49.2026 2.89941 49.4768 2.98561C49.7509 3.07182 50.0036 3.2151 50.2184 3.40602C50.4331 3.59695 50.605 3.83114 50.7227 4.09328C50.8404 4.35542 50.9013 4.63955 50.9013 4.9269C50.9013 5.21425 50.8404 5.49826 50.7227 5.7604C50.605 6.02253 50.4331 6.25685 50.2184 6.44777C50.0036 6.63869 49.7509 6.78198 49.4768 6.86818C49.2026 6.95438 48.9134 6.98154 48.628 6.9479Z" fill="white"/>
<path d="M23.607 25.0559C23.7131 25.2257 23.852 25.3727 24.0155 25.4883C24.179 25.6039 24.3639 25.6857 24.5593 25.7291C24.7548 25.7725 24.957 25.7766 25.154 25.741C25.3511 25.7054 25.5391 25.6309 25.707 25.5218L35.847 18.9349C36.1181 18.7637 36.3247 18.5072 36.4344 18.2059C36.544 17.9046 36.5506 17.5754 36.453 17.27C36.3554 16.9646 36.1592 16.7002 35.8952 16.5183C35.6312 16.3364 35.3142 16.2472 34.994 16.2649C34.7087 16.2724 34.4314 16.3604 34.194 16.5189L25.358 22.2579L23.258 18.8099C23.1624 18.6386 23.0337 18.488 22.8792 18.3669C22.7248 18.2459 22.5478 18.1568 22.3586 18.1049C22.1694 18.0529 21.9717 18.0391 21.7772 18.0643C21.5826 18.0896 21.395 18.1534 21.2253 18.2519C21.0556 18.3505 20.9072 18.4817 20.7888 18.6382C20.6704 18.7946 20.5843 18.9731 20.5356 19.1632C20.4869 19.3533 20.4766 19.5512 20.5051 19.7454C20.5337 19.9395 20.6006 20.126 20.702 20.2939L23.607 25.0559Z" fill="white"/>
</svg>
