<svg width="198" height="48" viewBox="0 0 198 48" fill="none" xmlns="http://www.w3.org/2000/svg">
<path d="M10.032 18.288C8.736 18.288 7.528 18.08 6.408 17.664C5.304 17.232 4.344 16.624 3.528 15.84C2.712 15.056 2.072 14.136 1.608 13.08C1.16 12.024 0.936 10.864 0.936 9.6C0.936 8.336 1.16 7.176 1.608 6.12C2.072 5.064 2.712 4.144 3.528 3.36C4.36 2.576 5.328 1.976 6.432 1.56C7.536 1.128 8.744 0.912 10.056 0.912C11.512 0.912 12.824 1.168 13.992 1.68C15.176 2.176 16.168 2.912 16.968 3.888L14.472 6.192C13.896 5.536 13.256 5.048 12.552 4.728C11.848 4.392 11.08 4.224 10.248 4.224C9.464 4.224 8.744 4.352 8.088 4.608C7.432 4.864 6.864 5.232 6.384 5.712C5.904 6.192 5.528 6.76 5.256 7.416C5 8.072 4.872 8.8 4.872 9.6C4.872 10.4 5 11.128 5.256 11.784C5.528 12.44 5.904 13.008 6.384 13.488C6.864 13.968 7.432 14.336 8.088 14.592C8.744 14.848 9.464 14.976 10.248 14.976C11.08 14.976 11.848 14.816 12.552 14.496C13.256 14.16 13.896 13.656 14.472 12.984L16.968 15.288C16.168 16.264 15.176 17.008 13.992 17.52C12.824 18.032 11.504 18.288 10.032 18.288ZM25.0283 18.192C23.6523 18.192 22.4283 17.904 21.3563 17.328C20.3003 16.752 19.4603 15.968 18.8363 14.976C18.2283 13.968 17.9243 12.824 17.9243 11.544C17.9243 10.248 18.2283 9.104 18.8363 8.112C19.4603 7.104 20.3003 6.32 21.3563 5.76C22.4283 5.184 23.6523 4.896 25.0283 4.896C26.3883 4.896 27.6043 5.184 28.6763 5.76C29.7483 6.32 30.5883 7.096 31.1963 8.088C31.8043 9.08 32.1083 10.232 32.1083 11.544C32.1083 12.824 31.8043 13.968 31.1963 14.976C30.5883 15.968 29.7483 16.752 28.6763 17.328C27.6043 17.904 26.3883 18.192 25.0283 18.192ZM25.0283 15.12C25.6523 15.12 26.2123 14.976 26.7083 14.688C27.2043 14.4 27.5963 13.992 27.8843 13.464C28.1723 12.92 28.3163 12.28 28.3163 11.544C28.3163 10.792 28.1723 10.152 27.8843 9.624C27.5963 9.096 27.2043 8.688 26.7083 8.4C26.2123 8.112 25.6523 7.968 25.0283 7.968C24.4043 7.968 23.8443 8.112 23.3483 8.4C22.8523 8.688 22.4523 9.096 22.1483 9.624C21.8603 10.152 21.7163 10.792 21.7163 11.544C21.7163 12.28 21.8603 12.92 22.1483 13.464C22.4523 13.992 22.8523 14.4 23.3483 14.688C23.8443 14.976 24.4043 15.12 25.0283 15.12ZM42.4588 4.896C43.4828 4.896 44.3948 5.104 45.1948 5.52C46.0108 5.92 46.6508 6.544 47.1148 7.392C47.5788 8.224 47.8108 9.296 47.8108 10.608V18H44.0668V11.184C44.0668 10.144 43.8348 9.376 43.3708 8.88C42.9228 8.384 42.2828 8.136 41.4508 8.136C40.8588 8.136 40.3228 8.264 39.8428 8.52C39.3788 8.76 39.0108 9.136 38.7388 9.648C38.4828 10.16 38.3548 10.816 38.3548 11.616V18H34.6108V5.088H38.1868V8.664L37.5148 7.584C37.9788 6.72 38.6428 6.056 39.5068 5.592C40.3708 5.128 41.3548 4.896 42.4588 4.896ZM57.4423 18.192C56.0663 18.192 54.8423 17.904 53.7703 17.328C52.7143 16.752 51.8743 15.968 51.2503 14.976C50.6423 13.968 50.3383 12.824 50.3383 11.544C50.3383 10.248 50.6423 9.104 51.2503 8.112C51.8743 7.104 52.7143 6.32 53.7703 5.76C54.8423 5.184 56.0663 4.896 57.4423 4.896C58.8023 4.896 60.0183 5.184 61.0903 5.76C62.1623 6.32 63.0023 7.096 63.6103 8.088C64.2183 9.08 64.5223 10.232 64.5223 11.544C64.5223 12.824 64.2183 13.968 63.6103 14.976C63.0023 15.968 62.1623 16.752 61.0903 17.328C60.0183 17.904 58.8023 18.192 57.4423 18.192ZM57.4423 15.12C58.0663 15.12 58.6263 14.976 59.1223 14.688C59.6183 14.4 60.0103 13.992 60.2983 13.464C60.5863 12.92 60.7303 12.28 60.7303 11.544C60.7303 10.792 60.5863 10.152 60.2983 9.624C60.0103 9.096 59.6183 8.688 59.1223 8.4C58.6263 8.112 58.0663 7.968 57.4423 7.968C56.8183 7.968 56.2583 8.112 55.7623 8.4C55.2663 8.688 54.8663 9.096 54.5623 9.624C54.2743 10.152 54.1303 10.792 54.1303 11.544C54.1303 12.28 54.2743 12.92 54.5623 13.464C54.8663 13.992 55.2663 14.4 55.7623 14.688C56.2583 14.976 56.8183 15.12 57.4423 15.12ZM73.2649 18.192C71.8729 18.192 70.6329 17.912 69.5449 17.352C68.4569 16.776 67.6009 15.984 66.9769 14.976C66.3689 13.968 66.0649 12.824 66.0649 11.544C66.0649 10.248 66.3689 9.104 66.9769 8.112C67.6009 7.104 68.4569 6.32 69.5449 5.76C70.6329 5.184 71.8729 4.896 73.2649 4.896C74.6249 4.896 75.8089 5.184 76.8169 5.76C77.8249 6.32 78.5689 7.128 79.0489 8.184L76.1449 9.744C75.8089 9.136 75.3849 8.688 74.8729 8.4C74.3769 8.112 73.8329 7.968 73.2409 7.968C72.6009 7.968 72.0249 8.112 71.5129 8.4C71.0009 8.688 70.5929 9.096 70.2889 9.624C70.0009 10.152 69.8569 10.792 69.8569 11.544C69.8569 12.296 70.0009 12.936 70.2889 13.464C70.5929 13.992 71.0009 14.4 71.5129 14.688C72.0249 14.976 72.6009 15.12 73.2409 15.12C73.8329 15.12 74.3769 14.984 74.8729 14.712C75.3849 14.424 75.8089 13.968 76.1449 13.344L79.0489 14.928C78.5689 15.968 77.8249 16.776 76.8169 17.352C75.8089 17.912 74.6249 18.192 73.2649 18.192ZM87.4485 18.192C85.9765 18.192 84.6805 17.904 83.5605 17.328C82.4565 16.752 81.6005 15.968 80.9925 14.976C80.3845 13.968 80.0805 12.824 80.0805 11.544C80.0805 10.248 80.3765 9.104 80.9685 8.112C81.5765 7.104 82.4005 6.32 83.4405 5.76C84.4805 5.184 85.6565 4.896 86.9685 4.896C88.2325 4.896 89.3685 5.168 90.3765 5.712C91.4005 6.24 92.2085 7.008 92.8005 8.016C93.3925 9.008 93.6885 10.2 93.6885 11.592C93.6885 11.736 93.6805 11.904 93.6645 12.096C93.6485 12.272 93.6325 12.44 93.6165 12.6H83.1285V10.416H91.6485L90.2085 11.064C90.2085 10.392 90.0725 9.808 89.8005 9.312C89.5285 8.816 89.1525 8.432 88.6725 8.16C88.1925 7.872 87.6325 7.728 86.9925 7.728C86.3525 7.728 85.7845 7.872 85.2885 8.16C84.8085 8.432 84.4325 8.824 84.1605 9.336C83.8885 9.832 83.7525 10.424 83.7525 11.112V11.688C83.7525 12.392 83.9045 13.016 84.2085 13.56C84.5285 14.088 84.9685 14.496 85.5285 14.784C86.1045 15.056 86.7765 15.192 87.5445 15.192C88.2325 15.192 88.8325 15.088 89.3445 14.88C89.8725 14.672 90.3525 14.36 90.7845 13.944L92.7765 16.104C92.1845 16.776 91.4405 17.296 90.5445 17.664C89.6485 18.016 88.6165 18.192 87.4485 18.192ZM110.826 4.896C111.85 4.896 112.762 5.104 113.562 5.52C114.378 5.92 115.018 6.544 115.482 7.392C115.946 8.224 116.178 9.296 116.178 10.608V18H112.434V11.184C112.434 10.144 112.202 9.376 111.738 8.88C111.29 8.384 110.65 8.136 109.818 8.136C109.226 8.136 108.69 8.264 108.21 8.52C107.746 8.76 107.378 9.136 107.106 9.648C106.85 10.16 106.722 10.816 106.722 11.616V18H102.978V5.088H106.554V8.664L105.882 7.584C106.346 6.72 107.01 6.056 107.874 5.592C108.738 5.128 109.722 4.896 110.826 4.896ZM125.02 18.192C123.948 18.192 122.988 17.984 122.14 17.568C121.308 17.152 120.66 16.52 120.196 15.672C119.732 14.808 119.5 13.712 119.5 12.384V5.088H123.244V11.832C123.244 12.904 123.468 13.696 123.916 14.208C124.38 14.704 125.028 14.952 125.86 14.952C126.436 14.952 126.948 14.832 127.396 14.592C127.844 14.336 128.196 13.952 128.452 13.44C128.708 12.912 128.836 12.256 128.836 11.472V5.088H132.58V18H129.028V14.448L129.676 15.48C129.244 16.376 128.604 17.056 127.756 17.52C126.924 17.968 126.012 18.192 125.02 18.192ZM142.456 18.192C140.984 18.192 139.688 17.904 138.568 17.328C137.464 16.752 136.608 15.968 136 14.976C135.392 13.968 135.088 12.824 135.088 11.544C135.088 10.248 135.384 9.104 135.976 8.112C136.584 7.104 137.408 6.32 138.448 5.76C139.488 5.184 140.664 4.896 141.976 4.896C143.24 4.896 144.376 5.168 145.384 5.712C146.408 6.24 147.216 7.008 147.808 8.016C148.4 9.008 148.696 10.2 148.696 11.592C148.696 11.736 148.688 11.904 148.672 12.096C148.656 12.272 148.64 12.44 148.624 12.6H138.136V10.416H146.656L145.216 11.064C145.216 10.392 145.08 9.808 144.808 9.312C144.536 8.816 144.16 8.432 143.68 8.16C143.2 7.872 142.64 7.728 142 7.728C141.36 7.728 140.792 7.872 140.296 8.16C139.816 8.432 139.44 8.824 139.168 9.336C138.896 9.832 138.76 10.424 138.76 11.112V11.688C138.76 12.392 138.912 13.016 139.216 13.56C139.536 14.088 139.976 14.496 140.536 14.784C141.112 15.056 141.784 15.192 142.552 15.192C143.24 15.192 143.84 15.088 144.352 14.88C144.88 14.672 145.36 14.36 145.792 13.944L147.784 16.104C147.192 16.776 146.448 17.296 145.552 17.664C144.656 18.016 143.624 18.192 142.456 18.192ZM155.533 18.192C154.429 18.192 153.365 18.064 152.341 17.808C151.333 17.536 150.533 17.2 149.941 16.8L151.189 14.112C151.781 14.48 152.477 14.784 153.277 15.024C154.093 15.248 154.893 15.36 155.677 15.36C156.541 15.36 157.149 15.256 157.501 15.048C157.869 14.84 158.053 14.552 158.053 14.184C158.053 13.88 157.909 13.656 157.621 13.512C157.349 13.352 156.981 13.232 156.517 13.152C156.053 13.072 155.541 12.992 154.981 12.912C154.437 12.832 153.885 12.728 153.325 12.6C152.765 12.456 152.253 12.248 151.789 11.976C151.325 11.704 150.949 11.336 150.661 10.872C150.389 10.408 150.253 9.808 150.253 9.072C150.253 8.256 150.485 7.536 150.949 6.912C151.429 6.288 152.117 5.8 153.013 5.448C153.909 5.08 154.981 4.896 156.229 4.896C157.109 4.896 158.005 4.992 158.917 5.184C159.829 5.376 160.589 5.656 161.197 6.024L159.949 8.688C159.325 8.32 158.693 8.072 158.053 7.944C157.429 7.8 156.821 7.728 156.229 7.728C155.397 7.728 154.789 7.84 154.405 8.064C154.021 8.288 153.829 8.576 153.829 8.928C153.829 9.248 153.965 9.488 154.237 9.648C154.525 9.808 154.901 9.936 155.365 10.032C155.829 10.128 156.333 10.216 156.877 10.296C157.437 10.36 157.997 10.464 158.557 10.608C159.117 10.752 159.621 10.96 160.069 11.232C160.533 11.488 160.909 11.848 161.197 12.312C161.485 12.76 161.629 13.352 161.629 14.088C161.629 14.888 161.389 15.6 160.909 16.224C160.429 16.832 159.733 17.312 158.821 17.664C157.925 18.016 156.829 18.192 155.533 18.192ZM169.219 18.192C167.699 18.192 166.515 17.808 165.667 17.04C164.819 16.256 164.395 15.096 164.395 13.56V2.232H168.139V13.512C168.139 14.056 168.283 14.48 168.571 14.784C168.859 15.072 169.251 15.216 169.747 15.216C170.339 15.216 170.843 15.056 171.259 14.736L172.267 17.376C171.883 17.648 171.419 17.856 170.875 18C170.347 18.128 169.795 18.192 169.219 18.192ZM162.403 8.256V5.376H171.355V8.256H162.403ZM174.369 18V5.088H177.945V8.736L177.441 7.68C177.825 6.768 178.441 6.08 179.289 5.616C180.137 5.136 181.169 4.896 182.385 4.896V8.352C182.225 8.336 182.081 8.328 181.953 8.328C181.825 8.312 181.689 8.304 181.545 8.304C180.521 8.304 179.689 8.6 179.049 9.192C178.425 9.768 178.113 10.672 178.113 11.904V18H174.369ZM190.661 18.192C189.285 18.192 188.061 17.904 186.989 17.328C185.933 16.752 185.093 15.968 184.469 14.976C183.861 13.968 183.557 12.824 183.557 11.544C183.557 10.248 183.861 9.104 184.469 8.112C185.093 7.104 185.933 6.32 186.989 5.76C188.061 5.184 189.285 4.896 190.661 4.896C192.021 4.896 193.237 5.184 194.309 5.76C195.381 6.32 196.221 7.096 196.829 8.088C197.437 9.08 197.741 10.232 197.741 11.544C197.741 12.824 197.437 13.968 196.829 14.976C196.221 15.968 195.381 16.752 194.309 17.328C193.237 17.904 192.021 18.192 190.661 18.192ZM190.661 15.12C191.285 15.12 191.845 14.976 192.341 14.688C192.837 14.4 193.229 13.992 193.517 13.464C193.805 12.92 193.949 12.28 193.949 11.544C193.949 10.792 193.805 10.152 193.517 9.624C193.229 9.096 192.837 8.688 192.341 8.4C191.845 8.112 191.285 7.968 190.661 7.968C190.037 7.968 189.477 8.112 188.981 8.4C188.485 8.688 188.085 9.096 187.781 9.624C187.493 10.152 187.349 10.792 187.349 11.544C187.349 12.28 187.493 12.92 187.781 13.464C188.085 13.992 188.485 14.4 188.981 14.688C189.477 14.976 190.037 15.12 190.661 15.12ZM7.008 47.192C5.488 47.192 4.304 46.808 3.456 46.04C2.608 45.256 2.184 44.096 2.184 42.56V31.232H5.928V42.512C5.928 43.056 6.072 43.48 6.36 43.784C6.648 44.072 7.04 44.216 7.536 44.216C8.128 44.216 8.632 44.056 9.048 43.736L10.056 46.376C9.672 46.648 9.208 46.856 8.664 47C8.136 47.128 7.584 47.192 7.008 47.192ZM0.192 37.256V34.376H9.144V37.256H0.192ZM17.6057 47.192C16.5337 47.192 15.5737 46.984 14.7257 46.568C13.8937 46.152 13.2457 45.52 12.7817 44.672C12.3177 43.808 12.0857 42.712 12.0857 41.384V34.088H15.8297V40.832C15.8297 41.904 16.0537 42.696 16.5017 43.208C16.9657 43.704 17.6137 43.952 18.4457 43.952C19.0217 43.952 19.5337 43.832 19.9817 43.592C20.4297 43.336 20.7817 42.952 21.0377 42.44C21.2937 41.912 21.4217 41.256 21.4217 40.472V34.088H25.1657V47H21.6137V43.448L22.2617 44.48C21.8297 45.376 21.1897 46.056 20.3417 46.52C19.5097 46.968 18.5977 47.192 17.6057 47.192ZM33.9143 47.192C32.3943 47.192 31.2103 46.808 30.3623 46.04C29.5143 45.256 29.0903 44.096 29.0903 42.56V31.232H32.8343V42.512C32.8343 43.056 32.9783 43.48 33.2663 43.784C33.5543 44.072 33.9463 44.216 34.4423 44.216C35.0343 44.216 35.5383 44.056 35.9543 43.736L36.9623 46.376C36.5783 46.648 36.1143 46.856 35.5703 47C35.0423 47.128 34.4903 47.192 33.9143 47.192ZM27.0983 37.256V34.376H36.0503V37.256H27.0983ZM44.8095 47.192C43.4335 47.192 42.2095 46.904 41.1375 46.328C40.0815 45.752 39.2415 44.968 38.6175 43.976C38.0095 42.968 37.7055 41.824 37.7055 40.544C37.7055 39.248 38.0095 38.104 38.6175 37.112C39.2415 36.104 40.0815 35.32 41.1375 34.76C42.2095 34.184 43.4335 33.896 44.8095 33.896C46.1695 33.896 47.3855 34.184 48.4575 34.76C49.5295 35.32 50.3695 36.096 50.9775 37.088C51.5855 38.08 51.8895 39.232 51.8895 40.544C51.8895 41.824 51.5855 42.968 50.9775 43.976C50.3695 44.968 49.5295 45.752 48.4575 46.328C47.3855 46.904 46.1695 47.192 44.8095 47.192ZM44.8095 44.12C45.4335 44.12 45.9935 43.976 46.4895 43.688C46.9855 43.4 47.3775 42.992 47.6655 42.464C47.9535 41.92 48.0975 41.28 48.0975 40.544C48.0975 39.792 47.9535 39.152 47.6655 38.624C47.3775 38.096 46.9855 37.688 46.4895 37.4C45.9935 37.112 45.4335 36.968 44.8095 36.968C44.1855 36.968 43.6255 37.112 43.1295 37.4C42.6335 37.688 42.2335 38.096 41.9295 38.624C41.6415 39.152 41.4975 39.792 41.4975 40.544C41.4975 41.28 41.6415 41.92 41.9295 42.464C42.2335 42.992 42.6335 43.4 43.1295 43.688C43.6255 43.976 44.1855 44.12 44.8095 44.12ZM54.3921 47V34.088H57.9681V37.736L57.4641 36.68C57.8481 35.768 58.4641 35.08 59.3121 34.616C60.1601 34.136 61.1921 33.896 62.4081 33.896V37.352C62.2481 37.336 62.1041 37.328 61.9761 37.328C61.8481 37.312 61.7121 37.304 61.5681 37.304C60.5441 37.304 59.7121 37.6 59.0721 38.192C58.4481 38.768 58.1361 39.672 58.1361 40.904V47H54.3921ZM64.6577 47V34.088H68.4017V47H64.6577ZM66.5297 32.288C65.8417 32.288 65.2817 32.088 64.8497 31.688C64.4177 31.288 64.2017 30.792 64.2017 30.2C64.2017 29.608 64.4177 29.112 64.8497 28.712C65.2817 28.312 65.8417 28.112 66.5297 28.112C67.2177 28.112 67.7777 28.304 68.2097 28.688C68.6417 29.056 68.8577 29.536 68.8577 30.128C68.8577 30.752 68.6417 31.272 68.2097 31.688C67.7937 32.088 67.2337 32.288 66.5297 32.288ZM79.7964 47V44.48L79.5564 43.928V39.416C79.5564 38.616 79.3084 37.992 78.8124 37.544C78.3324 37.096 77.5884 36.872 76.5804 36.872C75.8924 36.872 75.2124 36.984 74.5404 37.208C73.8844 37.416 73.3244 37.704 72.8604 38.072L71.5164 35.456C72.2204 34.96 73.0684 34.576 74.0604 34.304C75.0524 34.032 76.0604 33.896 77.0844 33.896C79.0524 33.896 80.5804 34.36 81.6684 35.288C82.7564 36.216 83.3004 37.664 83.3004 39.632V47H79.7964ZM75.8604 47.192C74.8524 47.192 73.9884 47.024 73.2684 46.688C72.5484 46.336 71.9964 45.864 71.6124 45.272C71.2284 44.68 71.0364 44.016 71.0364 43.28C71.0364 42.512 71.2204 41.84 71.5884 41.264C71.9724 40.688 72.5724 40.24 73.3884 39.92C74.2044 39.584 75.2684 39.416 76.5804 39.416H80.0124V41.6H76.9884C76.1084 41.6 75.5004 41.744 75.1644 42.032C74.8444 42.32 74.6844 42.68 74.6844 43.112C74.6844 43.592 74.8684 43.976 75.2364 44.264C75.6204 44.536 76.1404 44.672 76.7964 44.672C77.4204 44.672 77.9804 44.528 78.4764 44.24C78.9724 43.936 79.3324 43.496 79.5564 42.92L80.1324 44.648C79.8604 45.48 79.3644 46.112 78.6444 46.544C77.9244 46.976 76.9964 47.192 75.8604 47.192ZM86.6889 47V29.192H90.4329V47H86.6889ZM106.249 47.192C105.033 47.192 103.937 46.92 102.961 46.376C101.985 45.816 101.209 45.04 100.633 44.048C100.073 43.056 99.7926 41.888 99.7926 40.544C99.7926 39.184 100.073 38.008 100.633 37.016C101.209 36.024 101.985 35.256 102.961 34.712C103.937 34.168 105.033 33.896 106.249 33.896C107.337 33.896 108.289 34.136 109.105 34.616C109.921 35.096 110.553 35.824 111.001 36.8C111.449 37.776 111.673 39.024 111.673 40.544C111.673 42.048 111.457 43.296 111.025 44.288C110.593 45.264 109.969 45.992 109.153 46.472C108.353 46.952 107.385 47.192 106.249 47.192ZM106.897 44.12C107.505 44.12 108.057 43.976 108.553 43.688C109.049 43.4 109.441 42.992 109.729 42.464C110.033 41.92 110.185 41.28 110.185 40.544C110.185 39.792 110.033 39.152 109.729 38.624C109.441 38.096 109.049 37.688 108.553 37.4C108.057 37.112 107.505 36.968 106.897 36.968C106.273 36.968 105.713 37.112 105.217 37.4C104.721 37.688 104.321 38.096 104.017 38.624C103.729 39.152 103.585 39.792 103.585 40.544C103.585 41.28 103.729 41.92 104.017 42.464C104.321 42.992 104.721 43.4 105.217 43.688C105.713 43.976 106.273 44.12 106.897 44.12ZM110.281 47V44.36L110.353 40.52L110.113 36.704V29.192H113.857V47H110.281ZM123.73 47.192C122.258 47.192 120.962 46.904 119.842 46.328C118.738 45.752 117.882 44.968 117.274 43.976C116.666 42.968 116.362 41.824 116.362 40.544C116.362 39.248 116.658 38.104 117.25 37.112C117.858 36.104 118.682 35.32 119.722 34.76C120.762 34.184 121.938 33.896 123.25 33.896C124.514 33.896 125.65 34.168 126.658 34.712C127.682 35.24 128.49 36.008 129.082 37.016C129.674 38.008 129.97 39.2 129.97 40.592C129.97 40.736 129.962 40.904 129.946 41.096C129.93 41.272 129.914 41.44 129.898 41.6H119.41V39.416H127.93L126.49 40.064C126.49 39.392 126.354 38.808 126.082 38.312C125.81 37.816 125.434 37.432 124.954 37.16C124.474 36.872 123.914 36.728 123.274 36.728C122.634 36.728 122.066 36.872 121.57 37.16C121.09 37.432 120.714 37.824 120.442 38.336C120.17 38.832 120.034 39.424 120.034 40.112V40.688C120.034 41.392 120.186 42.016 120.49 42.56C120.81 43.088 121.25 43.496 121.81 43.784C122.386 44.056 123.058 44.192 123.826 44.192C124.514 44.192 125.114 44.088 125.626 43.88C126.154 43.672 126.634 43.36 127.066 42.944L129.058 45.104C128.466 45.776 127.722 46.296 126.826 46.664C125.93 47.016 124.898 47.192 123.73 47.192ZM144.707 47.192C143.635 47.192 142.675 46.984 141.827 46.568C140.995 46.152 140.347 45.52 139.883 44.672C139.419 43.808 139.187 42.712 139.187 41.384V34.088H142.931V40.832C142.931 41.904 143.155 42.696 143.603 43.208C144.067 43.704 144.715 43.952 145.547 43.952C146.123 43.952 146.635 43.832 147.083 43.592C147.531 43.336 147.883 42.952 148.139 42.44C148.395 41.912 148.523 41.256 148.523 40.472V34.088H152.267V47H148.715V43.448L149.363 44.48C148.931 45.376 148.291 46.056 147.443 46.52C146.611 46.968 145.699 47.192 144.707 47.192ZM160.08 47.192C158.976 47.192 157.912 47.064 156.888 46.808C155.88 46.536 155.08 46.2 154.488 45.8L155.736 43.112C156.328 43.48 157.024 43.784 157.824 44.024C158.64 44.248 159.44 44.36 160.224 44.36C161.088 44.36 161.696 44.256 162.048 44.048C162.416 43.84 162.6 43.552 162.6 43.184C162.6 42.88 162.456 42.656 162.168 42.512C161.896 42.352 161.528 42.232 161.064 42.152C160.6 42.072 160.088 41.992 159.528 41.912C158.984 41.832 158.432 41.728 157.872 41.6C157.312 41.456 156.8 41.248 156.336 40.976C155.872 40.704 155.496 40.336 155.208 39.872C154.936 39.408 154.8 38.808 154.8 38.072C154.8 37.256 155.032 36.536 155.496 35.912C155.976 35.288 156.664 34.8 157.56 34.448C158.456 34.08 159.528 33.896 160.776 33.896C161.656 33.896 162.552 33.992 163.464 34.184C164.376 34.376 165.136 34.656 165.744 35.024L164.496 37.688C163.872 37.32 163.24 37.072 162.6 36.944C161.976 36.8 161.368 36.728 160.776 36.728C159.944 36.728 159.336 36.84 158.952 37.064C158.568 37.288 158.376 37.576 158.376 37.928C158.376 38.248 158.512 38.488 158.784 38.648C159.072 38.808 159.448 38.936 159.912 39.032C160.376 39.128 160.88 39.216 161.424 39.296C161.984 39.36 162.544 39.464 163.104 39.608C163.664 39.752 164.168 39.96 164.616 40.232C165.08 40.488 165.456 40.848 165.744 41.312C166.032 41.76 166.176 42.352 166.176 43.088C166.176 43.888 165.936 44.6 165.456 45.224C164.976 45.832 164.28 46.312 163.368 46.664C162.472 47.016 161.376 47.192 160.08 47.192ZM174.63 47.192C173.254 47.192 172.03 46.904 170.958 46.328C169.902 45.752 169.062 44.968 168.438 43.976C167.83 42.968 167.526 41.824 167.526 40.544C167.526 39.248 167.83 38.104 168.438 37.112C169.062 36.104 169.902 35.32 170.958 34.76C172.03 34.184 173.254 33.896 174.63 33.896C175.99 33.896 177.206 34.184 178.278 34.76C179.35 35.32 180.19 36.096 180.798 37.088C181.406 38.08 181.71 39.232 181.71 40.544C181.71 41.824 181.406 42.968 180.798 43.976C180.19 44.968 179.35 45.752 178.278 46.328C177.206 46.904 175.99 47.192 174.63 47.192ZM174.63 44.12C175.254 44.12 175.814 43.976 176.31 43.688C176.806 43.4 177.198 42.992 177.486 42.464C177.774 41.92 177.918 41.28 177.918 40.544C177.918 39.792 177.774 39.152 177.486 38.624C177.198 38.096 176.806 37.688 176.31 37.4C175.814 37.112 175.254 36.968 174.63 36.968C174.006 36.968 173.446 37.112 172.95 37.4C172.454 37.688 172.054 38.096 171.75 38.624C171.462 39.152 171.318 39.792 171.318 40.544C171.318 41.28 171.462 41.92 171.75 42.464C172.054 42.992 172.454 43.4 172.95 43.688C173.446 43.976 174.006 44.12 174.63 44.12Z" fill="#5D6FE6"/>
</svg>
